<svg width="35" height="51" viewBox="0 0 35 51" fill="none" xmlns="http://www.w3.org/2000/svg">
<g clip-path="url(#clip0_247_1323)">
<path fill-rule="evenodd" clip-rule="evenodd" d="M17.5003 50.9989C17.7442 51.014 17.9259 50.8621 18.1483 50.706C22.3636 47.7451 26.7156 44.8825 31.0042 42.0145C32.2232 41.1993 33.0239 40.6265 33.7879 39.4461C34.5146 38.3229 35.0019 36.9634 35.0004 35.3016C35.0002 23.7722 35.0002 12.243 35.0002 0.713485C35.0002 0.321223 34.6767 0 34.2811 0H0.719783C0.324484 0 0.000774317 0.320942 0.000774317 0.713485C0.000774317 12.243 0.000491354 23.7722 0.000491354 35.3016C-0.00092346 36.9636 0.486338 38.3232 1.21299 39.4461C1.9767 40.6265 2.77777 41.1993 3.99677 42.0145C8.28564 44.8825 12.6373 47.7451 16.8526 50.706C17.075 50.8621 17.2567 51.014 17.5006 50.9989H17.5003Z" fill="white"/>
<path fill-rule="evenodd" clip-rule="evenodd" d="M15.2278 31.632C14.9267 32.2332 15.1007 34.4775 13.0006 36.4046C11.7841 37.5207 12.2207 36.6135 12.3469 38.8514C12.423 40.2011 12.0031 41.5753 12.0674 41.9207C12.433 42.0164 13.4946 41.1348 14.0577 40.9924C14.0594 41.5691 13.9338 43.9828 14.1709 44.2852C14.5255 44.3091 14.7199 43.9196 15.0368 43.4872C15.5102 42.8414 16.7289 40.8731 16.5215 40.17C15.8865 40.0506 14.6115 40.6911 14.0798 40.8874L14.0829 37.6269C14.6262 37.8141 16.3808 38.6998 17.0144 38.3241C17.23 38.1463 17.1632 32.0195 17.0747 31.6817C16.7244 31.5205 15.6734 31.5371 15.2281 31.632H15.2278ZM17.5735 9.43114C17.7889 9.43114 17.9221 9.407 18.035 9.43114H18.1276C18.2606 9.43114 18.3692 9.53897 18.3692 9.67094V12.8054C18.3692 12.8775 18.3367 12.9427 18.2852 12.9865C18.2838 12.9924 18.2824 12.998 18.2809 13.0028L18.2623 13.0039C18.2238 13.0297 18.1771 13.0452 18.1273 13.0452H17.6216C17.6163 13.0452 17.6112 13.0443 17.6064 13.0427L17.5648 13.0452L17.5733 9.43114H17.5735ZM21.7022 14.6923H23.5242L23.5327 9.67262L25.1742 9.66757V8.35572L23.5568 8.33972L23.531 4.8234L25.4057 4.81581L25.4071 3.19173H21.7022V14.6923ZM14.0229 7.8416L11.9763 7.83795L11.9802 9.11554H12.3747V13.0455C12.0504 13.0455 11.5323 13.0648 11.5227 12.9775C11.5227 12.5061 11.4729 4.90258 11.5227 4.88854C11.6211 4.75629 13.3014 4.82396 13.8715 4.81862V3.19201C12.0982 3.2229 10.4064 2.875 9.82206 4.18264C9.47486 4.9593 9.63615 7.63044 9.60191 9.02512C9.61153 10.7885 9.5207 13.1297 9.87469 13.8106C10.176 14.3831 10.7742 14.6538 11.5459 14.6923C12.2875 14.7294 13.2991 14.6872 14.0161 14.6923L14.0229 7.8416ZM17.5656 4.82059L17.5738 4.82143V4.82059C17.5738 4.79419 17.5956 4.77257 17.6222 4.77257H18.1279C18.2609 4.77257 18.3695 4.8804 18.3695 5.01237V7.55772C18.3695 7.68969 18.2609 7.79751 18.1279 7.79751H17.9244C17.8271 7.8006 17.7091 7.79779 17.5656 7.79779V4.82031V4.82059ZM19.801 8.62556C20.0036 8.33017 20.1109 8.20438 20.1643 7.67762C20.2028 7.29827 20.1774 6.81728 20.1774 6.42726C20.1774 4.85681 20.4105 3.30826 18.2495 3.19987C17.5911 3.18611 16.5461 3.20296 15.7354 3.19229L15.7428 14.6926C16.2425 14.6912 17.919 14.7381 18.432 14.6926C20.5169 14.5081 20.1774 12.6462 20.1774 10.9572C20.1793 9.92646 20.2535 9.3587 19.801 8.62556ZM8.07957 25.9581C7.70182 25.9076 7.02044 25.6804 6.67947 25.7983C6.64891 26.1811 7.58976 27.2306 7.64805 27.7495L4.70128 27.7456C3.44634 27.836 5.82379 29.176 6.08978 29.3315C6.51649 29.5811 7.87782 30.3235 8.48336 30.1924C8.56061 29.452 7.9777 28.3853 7.75077 27.7686L11.092 27.7689C10.987 28.1514 10.7176 28.6197 10.5708 29.126C10.4381 29.5831 10.2332 30.2893 10.4004 30.72C10.8201 30.8598 13.865 30.866 14.2323 30.7012C14.4754 30.0902 13.9341 28.677 13.6653 28.1463C13.2683 27.3623 12.8107 26.83 12.2558 26.3448C11.2089 25.4285 10.7748 26.3186 8.07985 25.9587L8.07957 25.9581ZM27.4079 27.7495C27.4676 27.2166 28.379 26.2395 28.3765 25.7983C28.0998 25.7029 26.4588 26.0446 25.9195 26.0446C25.1864 26.0446 24.8477 26.06 24.076 25.9396C23.4742 25.8458 23.4708 25.8452 23.0641 26.1403C22.0953 26.8437 21.3757 27.9118 21.0124 29.0956C20.7252 30.0315 20.479 30.7953 21.2877 30.7978C22.3276 30.8009 23.6663 30.916 24.6561 30.72C24.9719 29.9074 24.1131 28.3097 23.9645 27.7684L27.3058 27.7869C27.0788 28.385 26.4959 29.4517 26.5732 30.1921C27.3969 30.3704 29.2924 29.1465 29.9789 28.6717C30.1914 28.5248 31.1362 27.943 30.5392 27.7731L27.4085 27.7493L27.4079 27.7495ZM30.6849 34.5693C30.8535 34.2613 30.6563 34.2015 30.4594 34.0617C29.6286 33.4712 27.6329 32.0043 26.5952 32.1779C26.3966 32.7563 27.1603 34.0673 27.2981 34.6028L23.9959 34.6019C23.9993 34.3391 25.0771 32.2264 24.6343 31.7207C24.441 31.4874 23.853 31.5871 23.5025 31.5871C21.0647 31.5876 20.5778 31.2378 20.818 32.5005C21.1403 34.1937 22.0294 35.5709 23.2387 36.3622C23.7925 36.7244 25.2076 35.964 27.8058 36.5652C29.1784 36.883 27.7378 35.7989 27.3977 34.6233C27.9472 34.6109 30.3782 34.6895 30.6843 34.5693H30.6849ZM7.65767 34.6233C7.54194 35.0234 7.18173 35.5819 6.9596 35.9402C6.06771 37.3778 7.07251 35.9612 11.242 36.4745C12.5733 36.6385 14.6375 33.141 14.2586 31.6803C13.8557 31.4863 12.8588 31.5871 12.2915 31.5871C11.8336 31.5871 10.6749 31.4141 10.4211 31.7207C9.97967 32.2391 11.0561 34.3354 11.0595 34.6039L7.75728 34.5955C7.89536 34.0665 8.65908 32.7566 8.46016 32.1779C7.42593 32.0052 5.40246 33.483 4.55584 34.0889C4.3637 34.2265 4.21204 34.2804 4.37021 34.5693C4.67638 34.6895 7.10731 34.6109 7.65682 34.6233H7.65767ZM19.7874 30.6891C20.0936 30.4617 19.9705 29.3161 20.5848 28.0096C21.0843 26.9476 21.6527 26.2313 22.4589 25.6063C23.1861 25.0422 22.7721 25.1683 22.7056 23.5133C22.6538 22.2273 23.0749 20.7267 22.9428 20.4136C22.5313 20.4305 21.6391 21.2058 21.0013 21.3908L20.998 18.7797C21.0101 17.5406 20.5806 18.1148 20.0653 18.8339C19.5398 19.5674 18.367 21.3911 18.5189 22.2009C19.127 22.3629 20.3921 21.6657 20.9773 21.4885L20.9736 24.74C20.2498 24.5076 18.8214 23.7135 17.9977 24.0412C17.854 24.4444 17.9255 28.2213 17.9255 29.1734C17.9255 29.5977 17.7852 30.4726 18.08 30.6975C18.2869 30.8601 19.5947 30.8655 19.7874 30.6894V30.6891ZM14.0546 21.3908C13.6313 21.267 12.9576 20.8351 12.6361 20.6366C11.7357 20.0812 12.0773 20.7309 12.1958 21.4152C12.3053 22.047 12.3713 22.7229 12.3546 23.3782C12.3458 23.7284 12.154 25.1098 12.2323 25.2856C12.3011 25.4395 13.459 26.1139 14.2247 27.5201C14.4816 27.9921 14.6842 28.465 14.8486 29.0333C15.0569 29.7541 15.0379 30.4993 15.2682 30.6891C15.4621 30.8663 16.7674 30.8584 16.9779 30.699C17.2824 30.4578 17.1301 29.4857 17.1301 29.0401C17.1301 28.1921 17.2512 24.1627 16.9895 23.9895C16.058 23.7899 14.8279 24.5005 14.0778 24.74L14.0829 21.4846C14.6488 21.666 15.9397 22.3564 16.5368 22.2009C16.6884 21.3916 15.5175 19.5648 14.9915 18.8328C14.7779 18.5355 14.2646 17.6555 14.0756 18.2738C14.0532 18.3473 14.0583 18.367 14.0538 18.4448L14.0543 21.3908H14.0546ZM22.9651 41.9527C23.0574 41.5728 22.6295 40.143 22.7121 38.7955C22.8183 37.0664 23.1366 37.2767 22.4824 36.7803C20.0067 34.9029 20.0981 32.1723 19.8276 31.6323C19.382 31.5377 18.3313 31.5208 17.981 31.682C17.8927 32.0189 17.8251 38.1455 18.0413 38.3243C18.6828 38.7048 20.4235 37.8077 20.979 37.6271L20.9544 40.8877C20.4346 40.6875 19.1867 40.0475 18.5342 40.1702C18.3237 40.8834 19.5645 42.8675 20.0483 43.5246C20.4247 44.0353 20.5596 44.3534 20.9258 44.2678C21.0817 43.9216 20.996 41.5961 20.998 40.9927C21.6533 41.1586 22.5005 41.933 22.9654 41.9527H22.9651Z" fill="#FF0027"/>
</g>
<defs>
<clipPath id="clip0_247_1323">
<rect width="35" height="51" fill="white"/>
</clipPath>
</defs>
</svg>
