<svg width="164" height="28" viewBox="0 0 164 28" fill="none" xmlns="http://www.w3.org/2000/svg">
<rect width="164" height="28" rx="14" fill="#0F0F0F"/>
<path opacity="0.5" d="M13.7891 19V11H16.7891C17.4036 11 17.9193 11.1146 18.3359 11.3437C18.7552 11.5729 19.0716 11.888 19.2852 12.2891C19.5013 12.6875 19.6094 13.1406 19.6094 13.6484C19.6094 14.1615 19.5013 14.6172 19.2852 15.0156C19.069 15.4141 18.75 15.7279 18.3281 15.957C17.9063 16.1836 17.3867 16.2969 16.7695 16.2969H14.7813V15.1055H16.5742C16.9336 15.1055 17.2279 15.043 17.457 14.918C17.6862 14.793 17.8555 14.6211 17.9648 14.4023C18.0768 14.1836 18.1328 13.9323 18.1328 13.6484C18.1328 13.3646 18.0768 13.1146 17.9648 12.8984C17.8555 12.6823 17.6849 12.5143 17.4531 12.3945C17.224 12.2721 16.9284 12.2109 16.5664 12.2109H15.2383V19H13.7891ZM28.0166 15C28.0166 15.862 27.8551 16.6003 27.5322 17.2148C27.2119 17.8268 26.7744 18.2956 26.2197 18.6211C25.6676 18.9466 25.0413 19.1094 24.3408 19.1094C23.6403 19.1094 23.0127 18.9466 22.458 18.6211C21.9059 18.293 21.4684 17.8229 21.1455 17.2109C20.8252 16.5964 20.665 15.8594 20.665 15C20.665 14.138 20.8252 13.401 21.1455 12.7891C21.4684 12.1745 21.9059 11.7044 22.458 11.3789C23.0127 11.0534 23.6403 10.8906 24.3408 10.8906C25.0413 10.8906 25.6676 11.0534 26.2197 11.3789C26.7744 11.7044 27.2119 12.1745 27.5322 12.7891C27.8551 13.401 28.0166 14.138 28.0166 15ZM26.5596 15C26.5596 14.3932 26.4645 13.8815 26.2744 13.4648C26.0869 13.0456 25.8265 12.7292 25.4932 12.5156C25.1598 12.2995 24.7757 12.1914 24.3408 12.1914C23.9059 12.1914 23.5218 12.2995 23.1885 12.5156C22.8551 12.7292 22.5934 13.0456 22.4033 13.4648C22.2158 13.8815 22.1221 14.3932 22.1221 15C22.1221 15.6068 22.2158 16.1198 22.4033 16.5391C22.5934 16.9557 22.8551 17.2721 23.1885 17.4883C23.5218 17.7018 23.9059 17.8086 24.3408 17.8086C24.7757 17.8086 25.1598 17.7018 25.4932 17.4883C25.8265 17.2721 26.0869 16.9557 26.2744 16.5391C26.4645 16.1198 26.5596 15.6068 26.5596 15ZM30.8662 19L28.6084 11H30.167L31.6084 16.8789H31.6826L33.2217 11H34.6396L36.1826 16.8828H36.2529L37.6943 11H39.2529L36.9951 19H35.5654L33.9639 13.3867H33.9014L32.2959 19H30.8662ZM40.2578 19V11H45.4609V12.2148H41.707V14.3867H45.1914V15.6016H41.707V17.7852H45.4922V19H40.2578ZM46.9395 19V11H49.9395C50.554 11 51.0697 11.1068 51.4863 11.3203C51.9056 11.5339 52.222 11.8333 52.4355 12.2187C52.6517 12.6016 52.7598 13.0482 52.7598 13.5586C52.7598 14.0716 52.6504 14.5169 52.4316 14.8945C52.2155 15.2695 51.8965 15.5599 51.4746 15.7656C51.0527 15.9687 50.5345 16.0703 49.9199 16.0703H47.7832V14.8672H49.7246C50.084 14.8672 50.3783 14.8177 50.6074 14.7187C50.8366 14.6172 51.0059 14.4701 51.1152 14.2773C51.2272 14.082 51.2832 13.8424 51.2832 13.5586C51.2832 13.2747 51.2272 13.0326 51.1152 12.832C51.0033 12.6289 50.8327 12.4753 50.6035 12.3711C50.3743 12.2643 50.0788 12.2109 49.7168 12.2109H48.3887V19H46.9395ZM51.0723 15.375L53.0527 19H51.4355L49.4902 15.375H51.0723ZM54.0937 19V11H59.2969V12.2148H55.543V14.3867H59.0273V15.6016H55.543V17.7852H59.3281V19H54.0937ZM63.4863 19H60.7754V11H63.541C64.3353 11 65.0176 11.1602 65.5879 11.4805C66.1608 11.7982 66.6009 12.2552 66.9082 12.8516C67.2155 13.4479 67.3691 14.1615 67.3691 14.9922C67.3691 15.8255 67.2142 16.5417 66.9043 17.1406C66.597 17.7396 66.153 18.1992 65.5723 18.5195C64.9941 18.8398 64.2988 19 63.4863 19ZM62.2246 17.7461H63.416C63.9733 17.7461 64.4382 17.6445 64.8105 17.4414C65.1829 17.2357 65.4629 16.9297 65.6504 16.5234C65.8379 16.1146 65.9316 15.6042 65.9316 14.9922C65.9316 14.3802 65.8379 13.8724 65.6504 13.4687C65.4629 13.0625 65.1855 12.7591 64.8184 12.5586C64.4538 12.3555 64.0007 12.2539 63.459 12.2539H62.2246V17.7461ZM71.4746 19V11H74.5371C75.1152 11 75.5957 11.0911 75.9785 11.2734C76.3639 11.4531 76.6517 11.6992 76.8418 12.0117C77.0345 12.3242 77.1309 12.6784 77.1309 13.0742C77.1309 13.3997 77.0684 13.6784 76.9434 13.9102C76.8184 14.1393 76.6504 14.3255 76.4395 14.4687C76.2285 14.612 75.9928 14.7148 75.7324 14.7773V14.8555C76.0163 14.8711 76.2884 14.9583 76.5488 15.1172C76.8118 15.2734 77.0267 15.4948 77.1934 15.7812C77.36 16.0677 77.4434 16.4141 77.4434 16.8203C77.4434 17.2344 77.3431 17.6068 77.1426 17.9375C76.9421 18.2656 76.64 18.5247 76.2363 18.7148C75.8327 18.9049 75.3249 19 74.7129 19H71.4746ZM72.9238 17.7891H74.4824C75.0085 17.7891 75.3874 17.6888 75.6191 17.4883C75.8535 17.2852 75.9707 17.0247 75.9707 16.707C75.9707 16.4701 75.9121 16.2565 75.7949 16.0664C75.6777 15.8737 75.5111 15.7227 75.2949 15.6133C75.0788 15.5013 74.821 15.4453 74.5215 15.4453H72.9238V17.7891ZM72.9238 14.4023H74.3574C74.6074 14.4023 74.8327 14.3568 75.0332 14.2656C75.2337 14.1719 75.3913 14.0404 75.5059 13.8711C75.623 13.6992 75.6816 13.4961 75.6816 13.2617C75.6816 12.9518 75.5723 12.6966 75.3535 12.4961C75.1374 12.2956 74.8158 12.1953 74.3887 12.1953H72.9238V14.4023ZM78.1572 11H79.7939L81.751 14.5391H81.8291L83.7861 11H85.4229L82.5127 16.0156V19H81.0674V16.0156L78.1572 11Z" fill="white"/>
<g opacity="0.5" clip-path="url(#clip0_247_1213)">
<path fill-rule="evenodd" clip-rule="evenodd" d="M101.923 16.6793C101.79 16.9304 101.49 16.8978 100.978 16.7496C100.668 16.643 100.234 16.4213 100.344 16.2207C100.721 15.5795 100.937 14.8397 100.937 14.0518C100.937 11.6 98.8543 9.61227 96.2854 9.61227H96.2718C93.7033 9.61227 91.6216 11.5997 91.6216 14.051C91.6216 16.3115 93.3921 18.1773 95.6813 18.4543C95.879 18.4787 96.0809 18.4916 96.2854 18.4916C97.1451 18.4916 97.9502 18.2688 98.6411 17.8806C98.9418 17.7216 99.0411 17.5698 99.2783 17.7769C99.5888 18.0269 100.035 18.2318 100.487 18.2634C100.624 18.2785 100.664 18.4152 100.518 18.5275C99.4696 19.469 98.1543 19.9659 96.6214 20.0431C96.6041 20.0438 96.5872 20.0445 96.5703 20.0452C96.538 20.0466 96.5057 20.0477 96.4733 20.0488C96.459 20.0492 96.4448 20.0495 96.4309 20.0499C96.3824 20.051 96.3339 20.0517 96.2854 20.0517C92.814 20.0517 90 17.3653 90 14.0518C90 10.7382 92.814 8.05219 96.2854 8.05219C101.355 8.05219 103.758 12.9308 101.923 16.6793Z" fill="#425AE2"/>
<path d="M94.9596 14.7578C95.0445 14.624 94.9998 14.45 94.8596 14.3689C94.7194 14.2878 94.5371 14.3305 94.4521 14.4644C94.142 14.9527 93.6484 15.4521 93.1053 15.6448C92.9519 15.6993 92.8733 15.8623 92.9305 16.009C92.9876 16.1558 93.1587 16.2304 93.3124 16.1759C93.9886 15.9358 94.5788 15.3578 94.9596 14.7578ZM96.5391 14.1482C96.5876 13.9986 96.5004 13.84 96.344 13.7934C96.1873 13.7467 96.0211 13.8303 95.9722 13.9796C95.4385 15.6143 94.248 16.3549 93.8962 16.5429C93.753 16.619 93.7018 16.7919 93.7819 16.9283C93.862 17.0646 94.0428 17.1138 94.186 17.0373C95.1784 16.5074 96.1015 15.4877 96.5391 14.1482ZM94.2724 13.4733C94.3882 13.1167 94.6062 12.7999 94.9024 12.5577C95.0269 12.4561 95.0415 12.2771 94.9348 12.1583C94.8284 12.0396 94.6408 12.0256 94.5164 12.1275C94.1349 12.4393 93.8544 12.8465 93.7056 13.3058C93.4763 14.0108 93.135 14.4299 92.6617 14.5867C92.5068 14.638 92.4249 14.7995 92.4787 14.9473C92.5328 15.0951 92.7019 15.1734 92.8564 15.122C93.5112 14.905 93.9875 14.3503 94.2724 13.4733ZM95.6828 12.1572C95.9629 12.0805 96.2572 12.0611 96.5462 12.0998C96.7086 12.1217 96.8586 12.0141 96.8815 11.8591C96.9045 11.7041 96.7917 11.5609 96.6293 11.539C96.2718 11.4906 95.8926 11.5103 95.5193 11.6126C95.3618 11.6556 95.2704 11.8124 95.3156 11.9628C95.3607 12.1131 95.5253 12.2003 95.6828 12.1572ZM97.7063 11.9219C97.5683 11.8372 97.3849 11.8749 97.2962 12.0065C97.2071 12.1379 97.2469 12.3133 97.3845 12.398C98.0032 12.7791 98.3532 13.4328 98.3212 14.1468C98.3141 14.3076 98.4483 14.4425 98.6182 14.4425C98.7761 14.4425 98.9076 14.3233 98.9144 14.1712C98.9554 13.2537 98.5039 12.4131 97.7063 11.9219ZM97.5762 16.6197C97.439 16.5339 97.2552 16.5709 97.1657 16.7018C97.0372 16.8891 96.9033 17.0764 96.7571 17.2741C96.6177 17.4625 96.7605 17.7209 96.9992 17.7209C97.0924 17.7209 97.1838 17.6792 97.2416 17.6014C97.3924 17.3979 97.53 17.2053 97.6623 17.0119C97.7521 16.8809 97.7134 16.7051 97.5762 16.6197ZM99.3177 11.8214C97.7672 9.88888 94.6675 9.89534 93.1402 11.8885C92.785 12.3521 92.611 12.9161 92.4681 13.1985C92.3967 13.3395 92.4587 13.5089 92.6065 13.5767C92.7542 13.6448 92.9316 13.5856 93.0027 13.4446C93.2643 12.9269 93.4195 12.2021 94.3563 11.5483C95.7354 10.646 97.4277 10.9613 98.431 11.7916C99.6842 12.8286 100.02 15.1138 98.3694 16.347C98.2389 16.4406 98.0701 16.5903 98.2085 16.8292C98.4325 17.1051 98.7678 16.878 98.9666 16.6997C100.637 15.2006 100.288 12.8042 99.3177 11.8214ZM94.8389 13.6423C94.7904 13.7916 94.8776 13.9505 95.034 13.9968C95.1908 14.0435 95.3569 13.9602 95.4058 13.8106C95.7373 12.7945 97.4364 13.1436 97.0898 14.3689C96.8507 15.2139 96.1004 16.3258 95.1784 17.202C95.0622 17.3125 95.0618 17.4919 95.1772 17.6028C95.293 17.7137 95.4809 17.714 95.5971 17.6035C96.588 16.6624 97.3988 15.4507 97.6627 14.5167C97.8408 13.8867 97.636 13.4525 97.433 13.1996C96.7161 12.3058 95.202 12.5293 94.8389 13.6423Z" fill="#425AE2"/>
<path fill-rule="evenodd" clip-rule="evenodd" d="M104.76 14.0128V14.0087C104.764 11.1519 106.188 8.73755 109.462 8.73755C112.737 8.73755 114.161 11.1519 114.164 14.0087V14.0128C114.161 16.8704 112.737 19.2842 109.462 19.2842C106.188 19.2842 104.764 16.8704 104.76 14.0128ZM111.93 14.0113C111.928 12.9949 111.689 11.6976 110.784 11.0445C110.397 10.7659 109.944 10.6483 109.462 10.6483C108.98 10.6483 108.527 10.7659 108.141 11.0445C107.235 11.6976 106.996 12.9949 106.995 14.0113C106.996 15.0274 107.235 16.3242 108.141 16.977C108.527 17.2565 108.98 17.3731 109.462 17.3731C109.944 17.3731 110.397 17.2565 110.784 16.977C111.689 16.3242 111.928 15.0274 111.93 14.0113Z" fill="white"/>
<path fill-rule="evenodd" clip-rule="evenodd" d="M111.397 18.0757C111.827 18.0665 112.257 18.0573 112.686 18.0478C112.888 18.454 113.991 18.4383 114.438 17.996C114.529 17.9045 114.645 17.975 114.532 18.1896C114.429 18.4283 113.921 19.1708 113.696 19.3674C113.063 19.9663 111.396 19.4997 111.04 18.9257L111.397 18.0757Z" fill="white"/>
<path fill-rule="evenodd" clip-rule="evenodd" d="M119.424 16.0799V11.8811C119.424 11.6807 119.595 11.517 119.805 11.517H121.099C121.309 11.517 121.48 11.6807 121.48 11.8811V18.6858C121.48 18.8863 121.309 19.0491 121.099 19.0491H119.805C119.595 19.0491 119.424 18.8863 119.424 18.6858V18.6254C119.009 18.9769 118.481 19.1557 117.903 19.1557C116.031 19.1557 115.217 17.7692 115.217 16.158V11.8811C115.217 11.6807 115.388 11.517 115.598 11.517H116.891C117.102 11.517 117.273 11.6807 117.273 11.8811V16.3931C117.273 16.4275 117.274 16.4609 117.277 16.4953C117.32 17.0231 117.661 17.3337 118.227 17.3337C118.908 17.3337 119.395 16.6868 119.424 16.0799ZM145.872 19.0491H143.41C143.201 19.0491 143.03 18.8863 143.03 18.6858V9.27636C143.03 9.07563 143.201 8.91279 143.41 8.91279H145.872C149.372 8.91279 150.977 10.7777 150.977 13.9811C150.977 17.1845 149.372 19.0491 145.872 19.0491ZM139.909 8.91279H141.202C141.412 8.91279 141.583 9.07563 141.583 9.27636V18.6858C141.583 18.8863 141.412 19.0491 141.202 19.0491H139.909C139.698 19.0491 139.527 18.8863 139.527 18.6858V9.27636C139.527 9.07563 139.698 8.91279 139.909 8.91279ZM134.811 13.7511C135.38 13.1065 135.948 12.4611 136.517 11.8157C136.67 11.6363 136.84 11.517 137.092 11.517H138.425C138.54 11.517 138.655 11.5531 138.711 11.6573C138.793 11.8065 138.689 11.977 138.593 12.0943L136.442 14.7094C137.276 15.9674 138.107 17.2262 138.943 18.4818C139.025 18.6035 139.135 18.7705 139.049 18.915C138.982 19.0299 138.843 19.0491 138.718 19.0491H137.398C137.101 19.0491 136.977 18.8821 136.831 18.6622L135.177 16.1856L134.811 16.5406V18.6858C134.811 18.8863 134.639 19.0491 134.429 19.0491H133.136C132.926 19.0491 132.755 18.8863 132.755 18.6858V11.1108C132.755 10.9103 132.926 10.7475 133.136 10.7475H134.429C134.639 10.7475 134.811 10.9103 134.811 11.1108V13.7511ZM128.045 15.2702C128.045 16.5003 128.582 17.3168 129.962 17.3168C130.392 17.3168 130.725 17.2556 131.137 17.1356L131.141 17.1348L131.144 17.1342C131.444 17.0569 131.619 17.1457 131.67 17.4462L131.671 17.4495V17.453C131.711 17.7592 131.749 18.0656 131.789 18.372C131.801 18.475 131.818 18.5801 131.775 18.679C131.722 18.7998 131.602 18.8638 131.484 18.9165C131.095 19.0903 130.422 19.1557 129.989 19.1557C128.844 19.1557 127.756 18.7974 126.982 17.9682C126.29 17.2254 125.988 16.2519 125.988 15.2702C125.988 14.289 126.29 13.3147 126.982 12.5727C127.756 11.7429 128.844 11.3852 129.989 11.3852C130.422 11.3852 131.095 11.4498 131.484 11.6235C131.602 11.6765 131.722 11.7411 131.775 11.8619C131.818 11.9602 131.801 12.0659 131.789 12.1683C131.749 12.4744 131.711 12.7809 131.671 13.0882V13.0914L131.67 13.0941C131.619 13.3943 131.444 13.4834 131.144 13.407L131.141 13.4061L131.137 13.4053C130.725 13.2853 130.392 13.2232 129.962 13.2232C128.582 13.2232 128.045 14.0397 128.045 15.2702ZM124 8.45715C124.673 8.45715 125.197 8.99273 125.197 9.62779C125.197 10.264 124.673 10.7996 124 10.7996C123.326 10.7996 122.802 10.264 122.802 9.62779C122.802 8.99273 123.326 8.45715 124 8.45715ZM123.353 11.517H124.646C124.856 11.517 125.028 11.6807 125.028 11.8811V18.6858C125.028 18.8863 124.856 19.0491 124.646 19.0491H123.353C123.143 19.0491 122.971 18.8863 122.971 18.6858V11.8811C122.971 11.6807 123.143 11.517 123.353 11.517ZM145.085 10.77V17.1919H146.044C148.139 17.1919 148.839 15.8114 148.839 13.9811C148.839 12.1505 148.139 10.77 146.044 10.77H145.085Z" fill="white"/>
</g>
<defs>
<clipPath id="clip0_247_1213">
<rect width="61" height="12" fill="white" transform="translate(90 8)"/>
</clipPath>
</defs>
</svg>
