<svg width="369" height="578" viewBox="0 0 369 578" fill="none" xmlns="http://www.w3.org/2000/svg">
<path fill-rule="evenodd" clip-rule="evenodd" d="M19 0H155.066C156.095 15.344 169.104 27.4771 185 27.4771C200.896 27.4771 213.905 15.344 214.934 0H350C360.493 0 369 8.50659 369 19V559C369 568.169 362.505 575.821 353.865 577.607C353.373 576.093 351.966 575 350.309 575C348.51 575 347.008 576.286 346.648 578H343.274C342.913 576.286 341.411 575 339.613 575C337.815 575 336.313 576.286 335.952 578H332.579C332.218 576.286 330.716 575 328.917 575C327.119 575 325.617 576.286 325.256 578H321.883C321.522 576.286 320.02 575 318.222 575C316.423 575 314.921 576.286 314.561 578H311.187C310.826 576.286 309.324 575 307.526 575C305.728 575 304.226 576.286 303.865 578H300.492C300.131 576.286 298.629 575 296.83 575C295.032 575 293.53 576.286 293.169 578H289.796C289.435 576.286 287.933 575 286.135 575C284.336 575 282.834 576.286 282.474 578H279.1C278.74 576.286 277.237 575 275.439 575C273.641 575 272.139 576.286 271.778 578H268.405C268.044 576.286 266.542 575 264.743 575C262.945 575 261.443 576.286 261.082 578H257.709C257.348 576.286 255.846 575 254.048 575C252.25 575 250.747 576.286 250.387 578H247.013C246.653 576.286 245.15 575 243.352 575C241.554 575 240.052 576.286 239.691 578H236.318C235.957 576.286 234.455 575 232.657 575C230.858 575 229.356 576.286 228.995 578H225.622C225.261 576.286 223.759 575 221.961 575C220.163 575 218.661 576.286 218.3 578H214.926C214.566 576.286 213.063 575 211.265 575C209.467 575 207.965 576.286 207.604 578H204.231C203.87 576.286 202.368 575 200.57 575C198.771 575 197.269 576.286 196.908 578H193.535C193.174 576.286 191.672 575 189.874 575C188.076 575 186.574 576.286 186.213 578H182.839C182.479 576.286 180.977 575 179.178 575C177.38 575 175.878 576.286 175.517 578H172.144C171.783 576.286 170.281 575 168.483 575C166.684 575 165.182 576.286 164.822 578H161.448C161.087 576.286 159.585 575 157.787 575C155.989 575 154.487 576.286 154.126 578H150.752C150.392 576.286 148.89 575 147.091 575C145.293 575 143.791 576.286 143.43 578H140.057C139.696 576.286 138.194 575 136.396 575C134.597 575 133.095 576.286 132.735 578H129.361C129 576.286 127.498 575 125.7 575C123.902 575 122.4 576.286 122.039 578H118.665C118.305 576.286 116.803 575 115.004 575C113.206 575 111.704 576.286 111.343 578H107.97C107.609 576.286 106.107 575 104.309 575C102.51 575 101.008 576.286 100.648 578H97.2741C96.9134 576.286 95.4113 575 93.613 575C91.8148 575 90.3127 576.286 89.952 578H86.5785C86.2178 576.286 84.7157 575 82.9174 575C81.1191 575 79.617 576.286 79.2563 578H75.8828C75.5221 576.286 74.02 575 72.2217 575C70.4235 575 68.9214 576.286 68.5607 578H65.1871C64.8264 576.286 63.3243 575 61.5261 575C59.7278 575 58.2257 576.286 57.865 578H54.4915C54.1308 576.286 52.6287 575 50.8304 575C49.0322 575 47.53 576.286 47.1694 578H43.7958C43.4352 576.286 41.933 575 40.1348 575C38.3365 575 36.8344 576.286 36.4737 578H33.1002C32.7395 576.286 31.2374 575 29.4391 575C27.6409 575 26.1387 576.286 25.7781 578H22.4045C22.0439 576.286 20.5417 575 18.7435 575C17.082 575 15.6733 576.098 15.1841 577.617C6.51953 575.85 0 568.186 0 559V19C0 8.50658 8.50659 0 19 0Z" fill="#0492E2"/>
</svg>
