<svg width="147" height="144" viewBox="0 0 147 144" fill="none" xmlns="http://www.w3.org/2000/svg">
<path d="M17.7487 72.3139C15.557 72.3139 13.9957 71.8629 13.0647 70.961C12.1434 70.0591 11.6585 68.5608 11.61 66.4661C11.6003 65.6612 11.5906 64.7302 11.5809 63.6731C11.5712 62.6161 11.5664 61.5202 11.5664 60.3856C11.5664 59.2412 11.5712 58.1405 11.5809 57.0834C11.5906 56.0167 11.6003 55.0711 11.61 54.2468C11.6391 52.4721 12.1337 51.0659 13.0938 50.0283C14.0636 48.9809 15.6152 48.4572 17.7487 48.4572C19.8435 48.4572 21.3612 48.9082 22.3019 49.8101C23.2426 50.7023 23.742 52.1909 23.8002 54.2759C23.8099 54.5959 23.8147 54.9451 23.8147 55.3233C23.8147 55.6918 23.8099 56.0652 23.8002 56.4434C23.7905 56.8119 23.7808 57.1562 23.7711 57.4762H19.4071C19.4168 57.1174 19.4265 56.6955 19.4362 56.2106C19.4459 55.716 19.4507 55.2263 19.4507 54.7414C19.4507 54.2468 19.4459 53.8201 19.4362 53.4613C19.4265 52.9958 19.2713 52.637 18.9707 52.3848C18.6797 52.1327 18.2724 52.0066 17.7487 52.0066C17.196 52.0066 16.7644 52.1327 16.4541 52.3848C16.1535 52.637 15.9934 52.9958 15.974 53.4613C15.9352 54.4796 15.9062 55.5803 15.8868 56.7634C15.8771 57.9465 15.8722 59.1539 15.8722 60.3856C15.8722 61.6172 15.8771 62.8246 15.8868 64.0077C15.9062 65.1811 15.9352 66.2721 15.974 67.2807C15.9934 67.7559 16.1535 68.1244 16.4541 68.3863C16.7644 68.6384 17.196 68.7645 17.7487 68.7645C18.3209 68.7645 18.7622 68.6384 19.0725 68.3863C19.3828 68.1244 19.5428 67.7559 19.5525 67.2807C19.5622 66.9316 19.5671 66.5146 19.5671 66.0297C19.5768 65.5351 19.5768 65.0454 19.5671 64.5605C19.5671 64.0659 19.5622 63.644 19.5525 63.2949H23.9166C23.936 63.7604 23.9457 64.2889 23.9457 64.8805C23.9457 65.4721 23.936 66.0006 23.9166 66.4661C23.8584 68.5608 23.3492 70.0591 22.3892 70.961C21.4388 71.8629 19.892 72.3139 17.7487 72.3139Z" fill="white"/>
<path d="M26.6484 72.0229L29.8778 48.7481H36.7438L39.9732 72.0229H35.4928L34.9982 67.1643H31.6234L31.1288 72.0229H26.6484ZM32.0307 63.324H34.5909L34.0672 58.1744L33.7181 52.5885H32.9035L32.5544 58.1744L32.0307 63.324Z" fill="white"/>
<path d="M44.5173 72.0229V52.5885H40.7788V48.7481H52.6198V52.5885H48.8813V72.0229H44.5173Z" fill="white"/>
<path d="M55.7021 72.0229V48.7481H65.7685V52.5885H60.0662V58.2617H65.4776V62.1021H60.0662V68.1826H65.7685V72.0229H55.7021Z" fill="white"/>
<path d="M75.4043 72.3139C73.94 72.3139 72.7665 72.1199 71.884 71.732C71.0015 71.3344 70.3566 70.7089 69.9493 69.8555C69.542 68.9924 69.3141 67.8626 69.2656 66.4661C69.2365 65.6515 69.2123 64.7253 69.1929 63.6877C69.1832 62.6403 69.1783 61.5638 69.1783 60.4583C69.1783 59.3527 69.1832 58.286 69.1929 57.258C69.2123 56.23 69.2365 55.3233 69.2656 54.5378C69.3238 53.0637 69.5614 51.8805 69.9784 50.9883C70.4051 50.0961 71.0549 49.4512 71.9277 49.0536C72.8102 48.656 73.9691 48.4572 75.4043 48.4572C77.4409 48.4572 78.9247 48.9082 79.8556 49.8101C80.7963 50.7023 81.3297 52.1909 81.4558 54.2759C81.4849 54.722 81.4994 55.2554 81.4994 55.8761C81.4994 56.487 81.4849 57.0204 81.4558 57.4762H77.0918C77.1209 56.9331 77.1354 56.264 77.1354 55.4688C77.1354 54.6638 77.1209 53.9947 77.0918 53.4613C77.0627 52.9958 76.9027 52.637 76.6117 52.3848C76.3208 52.1327 75.9183 52.0066 75.4043 52.0066C74.8419 52.0066 74.4103 52.1327 74.1097 52.3848C73.8187 52.637 73.6587 52.9958 73.6296 53.4613C73.5714 54.4796 73.5278 55.5803 73.4987 56.7634C73.4696 57.9368 73.4551 59.1394 73.4551 60.371C73.4551 61.6026 73.4696 62.81 73.4987 63.9931C73.5278 65.1666 73.5714 66.2624 73.6296 67.2807C73.6587 67.7559 73.8187 68.1244 74.1097 68.3863C74.4103 68.6384 74.8419 68.7645 75.4043 68.7645C75.9571 68.7645 76.3984 68.6384 76.7281 68.3863C77.0675 68.1244 77.2566 67.7559 77.2954 67.2807C77.3148 67.0577 77.3245 66.7667 77.3245 66.4079C77.3342 66.0394 77.3342 65.6757 77.3245 65.3169C77.3245 64.9484 77.3148 64.6526 77.2954 64.4295H75.6953V60.6474H81.5431C81.5916 61.5299 81.611 62.4997 81.6013 63.5567C81.5916 64.6041 81.5625 65.5739 81.514 66.4661C81.417 68.5608 80.8933 70.0591 79.9429 70.961C79.0022 71.8629 77.4894 72.3139 75.4043 72.3139Z" fill="white"/>
<path d="M91.4687 72.3139C89.3352 72.3139 87.7884 71.8629 86.8283 70.961C85.8779 70.0591 85.3785 68.5608 85.33 66.4661C85.3106 65.5157 85.2961 64.5265 85.2864 63.4986C85.2767 62.4706 85.2718 61.4281 85.2718 60.371C85.2718 59.3139 85.2767 58.2714 85.2864 57.2435C85.2961 56.2155 85.3106 55.2263 85.33 54.2759C85.3785 52.1909 85.8779 50.7023 86.8283 49.8101C87.7884 48.9082 89.3352 48.4572 91.4687 48.4572C93.6119 48.4572 95.1491 48.9082 96.08 49.8101C97.011 50.7023 97.5105 52.1909 97.5784 54.2759C97.6171 55.2457 97.6462 56.2446 97.6656 57.2725C97.685 58.3005 97.6947 59.343 97.6947 60.4001C97.6947 61.4475 97.685 62.4851 97.6656 63.5131C97.6462 64.5314 97.6171 65.5157 97.5784 66.4661C97.5105 68.5608 97.011 70.0591 96.08 70.961C95.1491 71.8629 93.6119 72.3139 91.4687 72.3139ZM91.4687 68.7645C92.0409 68.7645 92.4725 68.6384 92.7634 68.3863C93.0543 68.1244 93.2046 67.7559 93.2143 67.2807C93.2628 66.2915 93.2968 65.2054 93.3162 64.0222C93.3356 62.8391 93.3453 61.622 93.3453 60.371C93.3453 59.12 93.3356 57.9029 93.3162 56.7198C93.2968 55.5366 93.2628 54.4505 93.2143 53.4613C93.2046 52.9958 93.0495 52.637 92.7488 52.3848C92.4482 52.1327 92.0215 52.0066 91.4687 52.0066C90.916 52.0066 90.4844 52.1327 90.1741 52.3848C89.8734 52.637 89.7134 52.9958 89.694 53.4613C89.6552 54.4505 89.6213 55.5366 89.5922 56.7198C89.5728 57.9029 89.5631 59.12 89.5631 60.371C89.5631 61.622 89.5728 62.8391 89.5922 64.0222C89.6213 65.2054 89.6552 66.2915 89.694 67.2807C89.7134 67.7559 89.8734 68.1244 90.1741 68.3863C90.4844 68.6384 90.916 68.7645 91.4687 68.7645Z" fill="white"/>
<path d="M101.596 72.0229V48.7481H107.211C109.383 48.7481 110.95 49.1894 111.91 50.0719C112.879 50.9447 113.398 52.3945 113.466 54.4214C113.486 54.9645 113.495 55.4397 113.495 55.847C113.505 56.2543 113.505 56.6616 113.495 57.0689C113.495 57.4762 113.486 57.9514 113.466 58.4945C113.427 59.7552 113.214 60.788 112.826 61.5929C112.448 62.3979 111.856 63.0137 111.051 63.4404L113.786 72.0229H109.16L106.949 64.1677H105.96V72.0229H101.596ZM105.96 60.3274H107.211C107.822 60.3274 108.283 60.1867 108.593 59.9055C108.903 59.6243 109.073 59.2315 109.102 58.7272C109.131 58.252 109.151 57.7574 109.16 57.2435C109.17 56.7198 109.17 56.2009 109.16 55.687C109.151 55.1633 109.131 54.6638 109.102 54.1886C109.073 53.6746 108.903 53.2819 108.593 53.0103C108.283 52.7291 107.822 52.5885 107.211 52.5885H105.96V60.3274Z" fill="white"/>
<path d="M119.46 72.0229V66.4661L115.096 48.7481H119.547L120.798 54.3923L121.235 61.2293H122.049L122.486 54.3923L123.737 48.7481H128.188L123.824 66.4661V72.0229H119.46Z" fill="white"/>
<path d="M54.5524 88.5152C54.5524 87.9796 54.1182 87.5454 53.5826 87.5454H52.9886C51.9174 87.5454 51.0491 88.4138 51.0491 89.485V142.06C51.0491 143.132 51.9174 144 52.9886 144H54.8293C55.2161 144 55.5513 143.755 55.8029 143.462C56.1921 143.007 56.77 142.719 57.4151 142.719C58.0603 142.719 58.6381 143.007 59.0274 143.462C59.279 143.755 59.6142 144 60.001 144H60.4883C60.8751 144 61.2103 143.755 61.4619 143.462C61.8511 143.007 62.429 142.719 63.0742 142.719C63.7193 142.719 64.2972 143.007 64.6864 143.462C64.938 143.755 65.2732 144 65.66 144H66.1473C66.5341 144 66.8693 143.755 67.1209 143.462C67.5101 143.007 68.088 142.719 68.7332 142.719C69.3783 142.719 69.9562 143.007 70.3454 143.462C70.597 143.755 70.9322 144 71.319 144H71.8062C72.193 144 72.5282 143.755 72.7798 143.462C73.169 143.007 73.7469 142.719 74.392 142.719C75.0372 142.719 75.6151 143.007 76.0042 143.462C76.2559 143.755 76.5911 144 76.9779 144H77.4648C77.8516 144 78.1868 143.755 78.4385 143.462C78.8277 143.007 79.4055 142.719 80.0507 142.719C80.6958 142.719 81.2737 143.007 81.6629 143.462C81.9145 143.755 82.2497 144 82.6365 144H84.4775C85.5487 144 86.417 143.132 86.417 142.06V141.394C86.417 140.889 86.0076 140.48 85.5026 140.48C85.1769 139.727 84.427 139.199 83.554 139.199C82.6809 139.199 81.9311 139.727 81.6053 140.48H79.8438C79.518 139.727 78.7681 139.199 77.8951 139.199C77.0221 139.199 76.2722 139.727 75.9464 140.48H74.1851C73.8594 139.727 73.1095 139.199 72.2365 139.199C71.3634 139.199 70.6136 139.727 70.2878 140.48H68.5261C68.2004 139.727 67.4505 139.199 66.5775 139.199C65.7044 139.199 64.9546 139.727 64.6288 140.48H62.8671C62.5413 139.727 61.7915 139.199 60.9184 139.199C60.0454 139.199 59.2955 139.727 58.9698 140.48H56.492C55.4208 140.48 54.5524 139.612 54.5524 138.54V88.5152Z" fill="white"/>
<path d="M0.574524 23.2763L3.53486 3.53892H0L0.491951 0.258945H11.3293L10.8373 3.53892H7.28792L4.32759 23.2763H0.574524Z" fill="white"/>
<path d="M0.574524 23.2763L3.53486 3.53892H0L0.491951 0.258945H11.3293L10.8373 3.53892H7.28792L4.32759 23.2763H0.574524Z" fill="white"/>
<path d="M0.574524 23.2763L3.53486 3.53892H0L0.491951 0.258945H11.3293L10.8373 3.53892H7.28792L4.32759 23.2763H0.574524Z" fill="white"/>
<path d="M0.574524 23.2763L3.53486 3.53892H0L0.491951 0.258945H11.3293L10.8373 3.53892H7.28792L4.32759 23.2763H0.574524Z" fill="white"/>
<path d="M10.474 23.2763L13.9263 0.258945H18.8286C20.7875 0.258945 22.1583 0.656953 22.9408 1.45297C23.7233 2.24899 23.982 3.56289 23.717 5.39469C23.6508 5.83586 23.5897 6.24345 23.5336 6.61749C23.4789 6.98193 23.4153 7.34157 23.3427 7.69642C23.1377 8.67466 22.8023 9.45629 22.3364 10.0413C21.8815 10.6168 21.2371 11.0339 20.403 11.2929L20.3038 11.9546C21.0893 12.2136 21.6272 12.6356 21.9177 13.2206C22.2082 13.8056 22.2966 14.6064 22.1829 15.623C22.1347 16.0738 22.0818 16.491 22.0242 16.8746C21.9667 17.2582 21.8937 17.6802 21.8053 18.1405C21.4544 19.9628 20.787 21.2767 19.803 22.0823C18.8205 22.8783 17.3498 23.2763 15.3908 23.2763H10.474ZM14.7336 19.9963H15.8828C16.4938 19.9963 16.983 19.8381 17.3505 19.5216C17.7291 19.1955 17.9652 18.7208 18.0587 18.0974C18.1288 17.6946 18.1912 17.311 18.2458 16.9465C18.3019 16.5725 18.3546 16.1889 18.4039 15.7957C18.5434 14.8654 18.4868 14.2084 18.234 13.8248C17.9924 13.4316 17.537 13.235 16.8678 13.235H15.7477L14.7336 19.9963ZM16.2397 9.955H17.3743C17.995 9.955 18.4955 9.7536 18.876 9.3508C19.2564 8.94799 19.509 8.36297 19.6338 7.59572C19.6956 7.18333 19.7553 6.78532 19.8129 6.4017C19.8719 6.00849 19.9316 5.61048 19.992 5.20767C20.0643 4.66101 19.9613 4.24862 19.6829 3.97049C19.4061 3.68277 18.9573 3.53892 18.3366 3.53892H17.202L16.2397 9.955Z" fill="white"/>
<path d="M10.474 23.2763L13.9263 0.258945H18.8286C20.7875 0.258945 22.1583 0.656953 22.9408 1.45297C23.7233 2.24899 23.982 3.56289 23.717 5.39469C23.6508 5.83586 23.5897 6.24345 23.5336 6.61749C23.4789 6.98193 23.4153 7.34157 23.3427 7.69642C23.1377 8.67466 22.8023 9.45629 22.3364 10.0413C21.8815 10.6168 21.2371 11.0339 20.403 11.2929L20.3038 11.9546C21.0893 12.2136 21.6272 12.6356 21.9177 13.2206C22.2082 13.8056 22.2966 14.6064 22.1829 15.623C22.1347 16.0738 22.0818 16.491 22.0242 16.8746C21.9667 17.2582 21.8937 17.6802 21.8053 18.1405C21.4544 19.9628 20.787 21.2767 19.803 22.0823C18.8205 22.8783 17.3498 23.2763 15.3908 23.2763H10.474ZM14.7336 19.9963H15.8828C16.4938 19.9963 16.983 19.8381 17.3505 19.5216C17.7291 19.1955 17.9652 18.7208 18.0587 18.0974C18.1288 17.6946 18.1912 17.311 18.2458 16.9465C18.3019 16.5725 18.3546 16.1889 18.4039 15.7957C18.5434 14.8654 18.4868 14.2084 18.234 13.8248C17.9924 13.4316 17.537 13.235 16.8678 13.235H15.7477L14.7336 19.9963ZM16.2397 9.955H17.3743C17.995 9.955 18.4955 9.7536 18.876 9.3508C19.2564 8.94799 19.509 8.36297 19.6338 7.59572C19.6956 7.18333 19.7553 6.78532 19.8129 6.4017C19.8719 6.00849 19.9316 5.61048 19.992 5.20767C20.0643 4.66101 19.9613 4.24862 19.6829 3.97049C19.4061 3.68277 18.9573 3.53892 18.3366 3.53892H17.202L16.2397 9.955Z" fill="white"/>
<path d="M10.474 23.2763L13.9263 0.258945H18.8286C20.7875 0.258945 22.1583 0.656953 22.9408 1.45297C23.7233 2.24899 23.982 3.56289 23.717 5.39469C23.6508 5.83586 23.5897 6.24345 23.5336 6.61749C23.4789 6.98193 23.4153 7.34157 23.3427 7.69642C23.1377 8.67466 22.8023 9.45629 22.3364 10.0413C21.8815 10.6168 21.2371 11.0339 20.403 11.2929L20.3038 11.9546C21.0893 12.2136 21.6272 12.6356 21.9177 13.2206C22.2082 13.8056 22.2966 14.6064 22.1829 15.623C22.1347 16.0738 22.0818 16.491 22.0242 16.8746C21.9667 17.2582 21.8937 17.6802 21.8053 18.1405C21.4544 19.9628 20.787 21.2767 19.803 22.0823C18.8205 22.8783 17.3498 23.2763 15.3908 23.2763H10.474ZM14.7336 19.9963H15.8828C16.4938 19.9963 16.983 19.8381 17.3505 19.5216C17.7291 19.1955 17.9652 18.7208 18.0587 18.0974C18.1288 17.6946 18.1912 17.311 18.2458 16.9465C18.3019 16.5725 18.3546 16.1889 18.4039 15.7957C18.5434 14.8654 18.4868 14.2084 18.234 13.8248C17.9924 13.4316 17.537 13.235 16.8678 13.235H15.7477L14.7336 19.9963ZM16.2397 9.955H17.3743C17.995 9.955 18.4955 9.7536 18.876 9.3508C19.2564 8.94799 19.509 8.36297 19.6338 7.59572C19.6956 7.18333 19.7553 6.78532 19.8129 6.4017C19.8719 6.00849 19.9316 5.61048 19.992 5.20767C20.0643 4.66101 19.9613 4.24862 19.6829 3.97049C19.4061 3.68277 18.9573 3.53892 18.3366 3.53892H17.202L16.2397 9.955Z" fill="white"/>
<path d="M10.474 23.2763L13.9263 0.258945H18.8286C20.7875 0.258945 22.1583 0.656953 22.9408 1.45297C23.7233 2.24899 23.982 3.56289 23.717 5.39469C23.6508 5.83586 23.5897 6.24345 23.5336 6.61749C23.4789 6.98193 23.4153 7.34157 23.3427 7.69642C23.1377 8.67466 22.8023 9.45629 22.3364 10.0413C21.8815 10.6168 21.2371 11.0339 20.403 11.2929L20.3038 11.9546C21.0893 12.2136 21.6272 12.6356 21.9177 13.2206C22.2082 13.8056 22.2966 14.6064 22.1829 15.623C22.1347 16.0738 22.0818 16.491 22.0242 16.8746C21.9667 17.2582 21.8937 17.6802 21.8053 18.1405C21.4544 19.9628 20.787 21.2767 19.803 22.0823C18.8205 22.8783 17.3498 23.2763 15.3908 23.2763H10.474ZM14.7336 19.9963H15.8828C16.4938 19.9963 16.983 19.8381 17.3505 19.5216C17.7291 19.1955 17.9652 18.7208 18.0587 18.0974C18.1288 17.6946 18.1912 17.311 18.2458 16.9465C18.3019 16.5725 18.3546 16.1889 18.4039 15.7957C18.5434 14.8654 18.4868 14.2084 18.234 13.8248C17.9924 13.4316 17.537 13.235 16.8678 13.235H15.7477L14.7336 19.9963ZM16.2397 9.955H17.3743C17.995 9.955 18.4955 9.7536 18.876 9.3508C19.2564 8.94799 19.509 8.36297 19.6338 7.59572C19.6956 7.18333 19.7553 6.78532 19.8129 6.4017C19.8719 6.00849 19.9316 5.61048 19.992 5.20767C20.0643 4.66101 19.9613 4.24862 19.6829 3.97049C19.4061 3.68277 18.9573 3.53892 18.3366 3.53892H17.202L16.2397 9.955Z" fill="white"/>
<path d="M24.4798 23.2763L27.9321 0.258945H31.6997L28.2474 23.2763H24.4798Z" fill="white"/>
<path d="M24.4798 23.2763L27.9321 0.258945H31.6997L28.2474 23.2763H24.4798Z" fill="white"/>
<path d="M24.4798 23.2763L27.9321 0.258945H31.6997L28.2474 23.2763H24.4798Z" fill="white"/>
<path d="M24.4798 23.2763L27.9321 0.258945H31.6997L28.2474 23.2763H24.4798Z" fill="white"/>
<path d="M31.9225 23.2763L35.3748 0.258945H39.1424L36.1821 19.9963H41.6371L41.1452 23.2763H31.9225Z" fill="white"/>
<path d="M31.9225 23.2763L35.3748 0.258945H39.1424L36.1821 19.9963H41.6371L41.1452 23.2763H31.9225Z" fill="white"/>
<path d="M31.9225 23.2763L35.3748 0.258945H39.1424L36.1821 19.9963H41.6371L41.1452 23.2763H31.9225Z" fill="white"/>
<path d="M31.9225 23.2763L35.3748 0.258945H39.1424L36.1821 19.9963H41.6371L41.1452 23.2763H31.9225Z" fill="white"/>
<path d="M43.9679 23.2763L47.4202 0.258945H51.1878L47.7355 23.2763H43.9679Z" fill="white"/>
<path d="M43.9679 23.2763L47.4202 0.258945H51.1878L47.7355 23.2763H43.9679Z" fill="white"/>
<path d="M43.9679 23.2763L47.4202 0.258945H51.1878L47.7355 23.2763H43.9679Z" fill="white"/>
<path d="M43.9679 23.2763L47.4202 0.258945H51.1878L47.7355 23.2763H43.9679Z" fill="white"/>
<path d="M56.5505 23.5352C54.6206 23.5352 53.3046 23.1276 52.6026 22.3124C51.9005 21.4972 51.6476 20.145 51.8437 18.2556C51.8901 17.8816 51.9435 17.4932 52.0039 17.0904C52.0643 16.6876 52.1337 16.2896 52.2121 15.8964C52.2919 15.4936 52.3799 15.1003 52.4763 14.7167H56.0111C55.8616 15.4552 55.7273 16.1889 55.6083 16.9177C55.5004 17.637 55.4239 18.3084 55.3789 18.9318C55.3497 19.4497 55.4605 19.8429 55.7111 20.1114C55.9729 20.3704 56.4045 20.4998 57.0057 20.4998C57.5973 20.4998 58.0483 20.3704 58.3586 20.1114C58.6705 19.8429 58.8895 19.4497 59.0156 18.9318C59.112 18.5481 59.1909 18.1837 59.2523 17.8384C59.3235 17.4932 59.376 17.1431 59.4098 16.7883C59.4534 16.4334 59.4852 16.0594 59.5054 15.6662C59.5482 15.1867 59.4903 14.7647 59.3316 14.4002C59.1826 14.0358 58.875 13.7912 58.4088 13.6665L56.3234 13.1199C55.4186 12.8801 54.7285 12.5349 54.2531 12.0841C53.779 11.6238 53.4726 11.0483 53.3337 10.3578C53.2045 9.66728 53.1959 8.85209 53.3077 7.91221C53.3685 7.44227 53.4313 6.99152 53.496 6.55994C53.5622 6.11878 53.6325 5.68241 53.7069 5.25083C53.9438 3.99447 54.3041 2.98266 54.7877 2.21542C55.2824 1.43858 55.9533 0.877536 56.8003 0.532275C57.6584 0.177425 58.7518 0 60.0804 0C61.9521 0 63.2438 0.407598 63.9556 1.2228C64.6784 2.0284 64.9377 3.37108 64.7334 5.25083C64.6866 5.692 64.6102 6.23386 64.5041 6.87643C64.398 7.519 64.2858 8.13759 64.1675 8.7322H60.56C60.6926 8.04168 60.8156 7.35116 60.9288 6.66064C61.0436 5.96053 61.1381 5.26522 61.2126 4.5747C61.2695 4.0664 61.1573 3.68277 60.8761 3.42383C60.6046 3.16488 60.1876 3.03541 59.6252 3.03541C59.0239 3.03541 58.5632 3.16488 58.2431 3.42383C57.9231 3.68277 57.6958 4.0664 57.5614 4.5747C57.4295 5.13095 57.3218 5.6872 57.2384 6.24346C57.1549 6.79971 57.0957 7.35596 57.0608 7.91221C57.0345 8.41092 57.0973 8.83291 57.2491 9.17817C57.4107 9.52343 57.744 9.7584 58.249 9.88307L60.0877 10.329C61.0506 10.5688 61.7822 10.9284 62.2825 11.408C62.7841 11.8779 63.103 12.4677 63.239 13.1774C63.3847 13.8871 63.4009 14.7167 63.2876 15.6662C63.2498 15.9827 63.2093 16.2848 63.1662 16.5725C63.1245 16.8506 63.0779 17.1287 63.0265 17.4069C62.9862 17.6754 62.9341 17.9583 62.8701 18.2556C62.5091 20.145 61.8505 21.4972 60.8942 22.3124C59.9476 23.1276 58.4997 23.5352 56.5505 23.5352Z" fill="white"/>
<path d="M56.5505 23.5352C54.6206 23.5352 53.3046 23.1276 52.6026 22.3124C51.9005 21.4972 51.6476 20.145 51.8437 18.2556C51.8901 17.8816 51.9435 17.4932 52.0039 17.0904C52.0643 16.6876 52.1337 16.2896 52.2121 15.8964C52.2919 15.4936 52.3799 15.1003 52.4763 14.7167H56.0111C55.8616 15.4552 55.7273 16.1889 55.6083 16.9177C55.5004 17.637 55.4239 18.3084 55.3789 18.9318C55.3497 19.4497 55.4605 19.8429 55.7111 20.1114C55.9729 20.3704 56.4045 20.4998 57.0057 20.4998C57.5973 20.4998 58.0483 20.3704 58.3586 20.1114C58.6705 19.8429 58.8895 19.4497 59.0156 18.9318C59.112 18.5481 59.1909 18.1837 59.2523 17.8384C59.3235 17.4932 59.376 17.1431 59.4098 16.7883C59.4534 16.4334 59.4852 16.0594 59.5054 15.6662C59.5482 15.1867 59.4903 14.7647 59.3316 14.4002C59.1826 14.0358 58.875 13.7912 58.4088 13.6665L56.3234 13.1199C55.4186 12.8801 54.7285 12.5349 54.2531 12.0841C53.779 11.6238 53.4726 11.0483 53.3337 10.3578C53.2045 9.66728 53.1959 8.85209 53.3077 7.91221C53.3685 7.44227 53.4313 6.99152 53.496 6.55994C53.5622 6.11878 53.6325 5.68241 53.7069 5.25083C53.9438 3.99447 54.3041 2.98266 54.7877 2.21542C55.2824 1.43858 55.9533 0.877536 56.8003 0.532275C57.6584 0.177425 58.7518 0 60.0804 0C61.9521 0 63.2438 0.407598 63.9556 1.2228C64.6784 2.0284 64.9377 3.37108 64.7334 5.25083C64.6866 5.692 64.6102 6.23386 64.5041 6.87643C64.398 7.519 64.2858 8.13759 64.1675 8.7322H60.56C60.6926 8.04168 60.8156 7.35116 60.9288 6.66064C61.0436 5.96053 61.1381 5.26522 61.2126 4.5747C61.2695 4.0664 61.1573 3.68277 60.8761 3.42383C60.6046 3.16488 60.1876 3.03541 59.6252 3.03541C59.0239 3.03541 58.5632 3.16488 58.2431 3.42383C57.9231 3.68277 57.6958 4.0664 57.5614 4.5747C57.4295 5.13095 57.3218 5.6872 57.2384 6.24346C57.1549 6.79971 57.0957 7.35596 57.0608 7.91221C57.0345 8.41092 57.0973 8.83291 57.2491 9.17817C57.4107 9.52343 57.744 9.7584 58.249 9.88307L60.0877 10.329C61.0506 10.5688 61.7822 10.9284 62.2825 11.408C62.7841 11.8779 63.103 12.4677 63.239 13.1774C63.3847 13.8871 63.4009 14.7167 63.2876 15.6662C63.2498 15.9827 63.2093 16.2848 63.1662 16.5725C63.1245 16.8506 63.0779 17.1287 63.0265 17.4069C62.9862 17.6754 62.9341 17.9583 62.8701 18.2556C62.5091 20.145 61.8505 21.4972 60.8942 22.3124C59.9476 23.1276 58.4997 23.5352 56.5505 23.5352Z" fill="white"/>
<path d="M56.5505 23.5352C54.6206 23.5352 53.3046 23.1276 52.6026 22.3124C51.9005 21.4972 51.6476 20.145 51.8437 18.2556C51.8901 17.8816 51.9435 17.4932 52.0039 17.0904C52.0643 16.6876 52.1337 16.2896 52.2121 15.8964C52.2919 15.4936 52.3799 15.1003 52.4763 14.7167H56.0111C55.8616 15.4552 55.7273 16.1889 55.6083 16.9177C55.5004 17.637 55.4239 18.3084 55.3789 18.9318C55.3497 19.4497 55.4605 19.8429 55.7111 20.1114C55.9729 20.3704 56.4045 20.4998 57.0057 20.4998C57.5973 20.4998 58.0483 20.3704 58.3586 20.1114C58.6705 19.8429 58.8895 19.4497 59.0156 18.9318C59.112 18.5481 59.1909 18.1837 59.2523 17.8384C59.3235 17.4932 59.376 17.1431 59.4098 16.7883C59.4534 16.4334 59.4852 16.0594 59.5054 15.6662C59.5482 15.1867 59.4903 14.7647 59.3316 14.4002C59.1826 14.0358 58.875 13.7912 58.4088 13.6665L56.3234 13.1199C55.4186 12.8801 54.7285 12.5349 54.2531 12.0841C53.779 11.6238 53.4726 11.0483 53.3337 10.3578C53.2045 9.66728 53.1959 8.85209 53.3077 7.91221C53.3685 7.44227 53.4313 6.99152 53.496 6.55994C53.5622 6.11878 53.6325 5.68241 53.7069 5.25083C53.9438 3.99447 54.3041 2.98266 54.7877 2.21542C55.2824 1.43858 55.9533 0.877536 56.8003 0.532275C57.6584 0.177425 58.7518 0 60.0804 0C61.9521 0 63.2438 0.407598 63.9556 1.2228C64.6784 2.0284 64.9377 3.37108 64.7334 5.25083C64.6866 5.692 64.6102 6.23386 64.5041 6.87643C64.398 7.519 64.2858 8.13759 64.1675 8.7322H60.56C60.6926 8.04168 60.8156 7.35116 60.9288 6.66064C61.0436 5.96053 61.1381 5.26522 61.2126 4.5747C61.2695 4.0664 61.1573 3.68277 60.8761 3.42383C60.6046 3.16488 60.1876 3.03541 59.6252 3.03541C59.0239 3.03541 58.5632 3.16488 58.2431 3.42383C57.9231 3.68277 57.6958 4.0664 57.5614 4.5747C57.4295 5.13095 57.3218 5.6872 57.2384 6.24346C57.1549 6.79971 57.0957 7.35596 57.0608 7.91221C57.0345 8.41092 57.0973 8.83291 57.2491 9.17817C57.4107 9.52343 57.744 9.7584 58.249 9.88307L60.0877 10.329C61.0506 10.5688 61.7822 10.9284 62.2825 11.408C62.7841 11.8779 63.103 12.4677 63.239 13.1774C63.3847 13.8871 63.4009 14.7167 63.2876 15.6662C63.2498 15.9827 63.2093 16.2848 63.1662 16.5725C63.1245 16.8506 63.0779 17.1287 63.0265 17.4069C62.9862 17.6754 62.9341 17.9583 62.8701 18.2556C62.5091 20.145 61.8505 21.4972 60.8942 22.3124C59.9476 23.1276 58.4997 23.5352 56.5505 23.5352Z" fill="white"/>
<path d="M56.5505 23.5352C54.6206 23.5352 53.3046 23.1276 52.6026 22.3124C51.9005 21.4972 51.6476 20.145 51.8437 18.2556C51.8901 17.8816 51.9435 17.4932 52.0039 17.0904C52.0643 16.6876 52.1337 16.2896 52.2121 15.8964C52.2919 15.4936 52.3799 15.1003 52.4763 14.7167H56.0111C55.8616 15.4552 55.7273 16.1889 55.6083 16.9177C55.5004 17.637 55.4239 18.3084 55.3789 18.9318C55.3497 19.4497 55.4605 19.8429 55.7111 20.1114C55.9729 20.3704 56.4045 20.4998 57.0057 20.4998C57.5973 20.4998 58.0483 20.3704 58.3586 20.1114C58.6705 19.8429 58.8895 19.4497 59.0156 18.9318C59.112 18.5481 59.1909 18.1837 59.2523 17.8384C59.3235 17.4932 59.376 17.1431 59.4098 16.7883C59.4534 16.4334 59.4852 16.0594 59.5054 15.6662C59.5482 15.1867 59.4903 14.7647 59.3316 14.4002C59.1826 14.0358 58.875 13.7912 58.4088 13.6665L56.3234 13.1199C55.4186 12.8801 54.7285 12.5349 54.2531 12.0841C53.779 11.6238 53.4726 11.0483 53.3337 10.3578C53.2045 9.66728 53.1959 8.85209 53.3077 7.91221C53.3685 7.44227 53.4313 6.99152 53.496 6.55994C53.5622 6.11878 53.6325 5.68241 53.7069 5.25083C53.9438 3.99447 54.3041 2.98266 54.7877 2.21542C55.2824 1.43858 55.9533 0.877536 56.8003 0.532275C57.6584 0.177425 58.7518 0 60.0804 0C61.9521 0 63.2438 0.407598 63.9556 1.2228C64.6784 2.0284 64.9377 3.37108 64.7334 5.25083C64.6866 5.692 64.6102 6.23386 64.5041 6.87643C64.398 7.519 64.2858 8.13759 64.1675 8.7322H60.56C60.6926 8.04168 60.8156 7.35116 60.9288 6.66064C61.0436 5.96053 61.1381 5.26522 61.2126 4.5747C61.2695 4.0664 61.1573 3.68277 60.8761 3.42383C60.6046 3.16488 60.1876 3.03541 59.6252 3.03541C59.0239 3.03541 58.5632 3.16488 58.2431 3.42383C57.9231 3.68277 57.6958 4.0664 57.5614 4.5747C57.4295 5.13095 57.3218 5.6872 57.2384 6.24346C57.1549 6.79971 57.0957 7.35596 57.0608 7.91221C57.0345 8.41092 57.0973 8.83291 57.2491 9.17817C57.4107 9.52343 57.744 9.7584 58.249 9.88307L60.0877 10.329C61.0506 10.5688 61.7822 10.9284 62.2825 11.408C62.7841 11.8779 63.103 12.4677 63.239 13.1774C63.3847 13.8871 63.4009 14.7167 63.2876 15.6662C63.2498 15.9827 63.2093 16.2848 63.1662 16.5725C63.1245 16.8506 63.0779 17.1287 63.0265 17.4069C62.9862 17.6754 62.9341 17.9583 62.8701 18.2556C62.5091 20.145 61.8505 21.4972 60.8942 22.3124C59.9476 23.1276 58.4997 23.5352 56.5505 23.5352Z" fill="white"/>
<path d="M65.4164 23.2763L68.8687 0.258945H72.6363L69.1841 23.2763H65.4164Z" fill="white"/>
<path d="M65.4164 23.2763L68.8687 0.258945H72.6363L69.1841 23.2763H65.4164Z" fill="white"/>
<path d="M65.4164 23.2763L68.8687 0.258945H72.6363L69.1841 23.2763H65.4164Z" fill="white"/>
<path d="M65.4164 23.2763L68.8687 0.258945H72.6363L69.1841 23.2763H65.4164Z" fill="white"/>
<path d="M12.0097 38.9323L13.6207 28.1909H16.1325C17.1462 28.1909 17.8556 28.3945 18.2607 28.8018C18.6664 29.2046 18.7991 29.8737 18.6588 30.8091C18.64 30.9344 18.6219 31.0552 18.6045 31.1716C18.587 31.288 18.565 31.4043 18.5385 31.5207C18.4337 32.0085 18.2644 32.3979 18.0307 32.6888C17.7977 32.9753 17.4697 33.1856 17.0467 33.3199L16.9984 33.6421C17.3946 33.7764 17.6679 33.9912 17.8182 34.2866C17.9692 34.5775 18.0158 34.9759 17.958 35.4816C17.9449 35.6293 17.929 35.7658 17.9102 35.8911C17.8914 36.0164 17.8657 36.1574 17.8332 36.3141C17.6528 37.245 17.3081 37.9141 16.7989 38.3214C16.2943 38.7286 15.5352 38.9323 14.5214 38.9323H12.0097ZM14.3121 37.1599H14.7872C15.0724 37.1599 15.3007 37.0861 15.4722 36.9384C15.6489 36.7862 15.7584 36.5692 15.8007 36.2872C15.8188 36.1664 15.8366 36.0478 15.854 35.9314C15.8715 35.815 15.8893 35.6964 15.9074 35.5756C15.9738 35.1325 15.9507 34.8192 15.8379 34.6357C15.7303 34.4477 15.5204 34.3538 15.2081 34.3538H14.7329L14.3121 37.1599ZM14.9988 32.5814H15.474C15.7591 32.5814 15.9907 32.4852 16.169 32.2927C16.3524 32.0958 16.4706 31.8206 16.5236 31.467C16.5431 31.3372 16.5622 31.2096 16.581 31.0843C16.6005 30.9545 16.6196 30.827 16.6384 30.7017C16.674 30.4645 16.6242 30.2832 16.4892 30.1579C16.3593 30.0281 16.1518 29.9632 15.8667 29.9632H15.3915L14.9988 32.5814Z" fill="white"/>
<path d="M12.0097 38.9323L13.6207 28.1909H16.1325C17.1462 28.1909 17.8556 28.3945 18.2607 28.8018C18.6664 29.2046 18.7991 29.8737 18.6588 30.8091C18.64 30.9344 18.6219 31.0552 18.6045 31.1716C18.587 31.288 18.565 31.4043 18.5385 31.5207C18.4337 32.0085 18.2644 32.3979 18.0307 32.6888C17.7977 32.9753 17.4697 33.1856 17.0467 33.3199L16.9984 33.6421C17.3946 33.7764 17.6679 33.9912 17.8182 34.2866C17.9692 34.5775 18.0158 34.9759 17.958 35.4816C17.9449 35.6293 17.929 35.7658 17.9102 35.8911C17.8914 36.0164 17.8657 36.1574 17.8332 36.3141C17.6528 37.245 17.3081 37.9141 16.7989 38.3214C16.2943 38.7286 15.5352 38.9323 14.5214 38.9323H12.0097ZM14.3121 37.1599H14.7872C15.0724 37.1599 15.3007 37.0861 15.4722 36.9384C15.6489 36.7862 15.7584 36.5692 15.8007 36.2872C15.8188 36.1664 15.8366 36.0478 15.854 35.9314C15.8715 35.815 15.8893 35.6964 15.9074 35.5756C15.9738 35.1325 15.9507 34.8192 15.8379 34.6357C15.7303 34.4477 15.5204 34.3538 15.2081 34.3538H14.7329L14.3121 37.1599ZM14.9988 32.5814H15.474C15.7591 32.5814 15.9907 32.4852 16.169 32.2927C16.3524 32.0958 16.4706 31.8206 16.5236 31.467C16.5431 31.3372 16.5622 31.2096 16.581 31.0843C16.6005 30.9545 16.6196 30.827 16.6384 30.7017C16.674 30.4645 16.6242 30.2832 16.4892 30.1579C16.3593 30.0281 16.1518 29.9632 15.8667 29.9632H15.3915L14.9988 32.5814Z" fill="white"/>
<path d="M12.0097 38.9323L13.6207 28.1909H16.1325C17.1462 28.1909 17.8556 28.3945 18.2607 28.8018C18.6664 29.2046 18.7991 29.8737 18.6588 30.8091C18.64 30.9344 18.6219 31.0552 18.6045 31.1716C18.587 31.288 18.565 31.4043 18.5385 31.5207C18.4337 32.0085 18.2644 32.3979 18.0307 32.6888C17.7977 32.9753 17.4697 33.1856 17.0467 33.3199L16.9984 33.6421C17.3946 33.7764 17.6679 33.9912 17.8182 34.2866C17.9692 34.5775 18.0158 34.9759 17.958 35.4816C17.9449 35.6293 17.929 35.7658 17.9102 35.8911C17.8914 36.0164 17.8657 36.1574 17.8332 36.3141C17.6528 37.245 17.3081 37.9141 16.7989 38.3214C16.2943 38.7286 15.5352 38.9323 14.5214 38.9323H12.0097ZM14.3121 37.1599H14.7872C15.0724 37.1599 15.3007 37.0861 15.4722 36.9384C15.6489 36.7862 15.7584 36.5692 15.8007 36.2872C15.8188 36.1664 15.8366 36.0478 15.854 35.9314C15.8715 35.815 15.8893 35.6964 15.9074 35.5756C15.9738 35.1325 15.9507 34.8192 15.8379 34.6357C15.7303 34.4477 15.5204 34.3538 15.2081 34.3538H14.7329L14.3121 37.1599ZM14.9988 32.5814H15.474C15.7591 32.5814 15.9907 32.4852 16.169 32.2927C16.3524 32.0958 16.4706 31.8206 16.5236 31.467C16.5431 31.3372 16.5622 31.2096 16.581 31.0843C16.6005 30.9545 16.6196 30.827 16.6384 30.7017C16.674 30.4645 16.6242 30.2832 16.4892 30.1579C16.3593 30.0281 16.1518 29.9632 15.8667 29.9632H15.3915L14.9988 32.5814Z" fill="white"/>
<path d="M12.0097 38.9323L13.6207 28.1909H16.1325C17.1462 28.1909 17.8556 28.3945 18.2607 28.8018C18.6664 29.2046 18.7991 29.8737 18.6588 30.8091C18.64 30.9344 18.6219 31.0552 18.6045 31.1716C18.587 31.288 18.565 31.4043 18.5385 31.5207C18.4337 32.0085 18.2644 32.3979 18.0307 32.6888C17.7977 32.9753 17.4697 33.1856 17.0467 33.3199L16.9984 33.6421C17.3946 33.7764 17.6679 33.9912 17.8182 34.2866C17.9692 34.5775 18.0158 34.9759 17.958 35.4816C17.9449 35.6293 17.929 35.7658 17.9102 35.8911C17.8914 36.0164 17.8657 36.1574 17.8332 36.3141C17.6528 37.245 17.3081 37.9141 16.7989 38.3214C16.2943 38.7286 15.5352 38.9323 14.5214 38.9323H12.0097ZM14.3121 37.1599H14.7872C15.0724 37.1599 15.3007 37.0861 15.4722 36.9384C15.6489 36.7862 15.7584 36.5692 15.8007 36.2872C15.8188 36.1664 15.8366 36.0478 15.854 35.9314C15.8715 35.815 15.8893 35.6964 15.9074 35.5756C15.9738 35.1325 15.9507 34.8192 15.8379 34.6357C15.7303 34.4477 15.5204 34.3538 15.2081 34.3538H14.7329L14.3121 37.1599ZM14.9988 32.5814H15.474C15.7591 32.5814 15.9907 32.4852 16.169 32.2927C16.3524 32.0958 16.4706 31.8206 16.5236 31.467C16.5431 31.3372 16.5622 31.2096 16.581 31.0843C16.6005 30.9545 16.6196 30.827 16.6384 30.7017C16.674 30.4645 16.6242 30.2832 16.4892 30.1579C16.3593 30.0281 16.1518 29.9632 15.8667 29.9632H15.3915L14.9988 32.5814Z" fill="white"/>
<path d="M18.97 38.9323L20.5811 28.1909H23.2014C24.2152 28.1909 24.9155 28.3945 25.3025 28.8018C25.6946 29.2046 25.8364 29.8737 25.7278 30.8091C25.6992 31.0597 25.6709 31.279 25.6427 31.467C25.619 31.655 25.5908 31.8429 25.5581 32.0309C25.5299 32.2189 25.4925 32.4382 25.4458 32.6888C25.3405 33.2707 25.1694 33.7473 24.9327 34.1188C24.7005 34.4903 24.3818 34.7745 23.9766 34.9714L24.6587 38.9323H22.5L22.0119 35.3071H21.5503L21.0065 38.9323H18.97ZM21.8161 33.5347H22.3999C22.685 33.5347 22.9097 33.4698 23.074 33.34C23.2383 33.2102 23.3447 33.029 23.3932 32.7962C23.4396 32.5769 23.4829 32.3487 23.523 32.1115C23.5638 31.8698 23.5997 31.6304 23.6308 31.3931C23.6625 31.1515 23.688 30.921 23.7073 30.7017C23.7293 30.4645 23.6773 30.2832 23.5513 30.1579C23.4259 30.0281 23.2207 29.9632 22.9356 29.9632H22.3518L21.8161 33.5347Z" fill="white"/>
<path d="M18.97 38.9323L20.5811 28.1909H23.2014C24.2152 28.1909 24.9155 28.3945 25.3025 28.8018C25.6946 29.2046 25.8364 29.8737 25.7278 30.8091C25.6992 31.0597 25.6709 31.279 25.6427 31.467C25.619 31.655 25.5908 31.8429 25.5581 32.0309C25.5299 32.2189 25.4925 32.4382 25.4458 32.6888C25.3405 33.2707 25.1694 33.7473 24.9327 34.1188C24.7005 34.4903 24.3818 34.7745 23.9766 34.9714L24.6587 38.9323H22.5L22.0119 35.3071H21.5503L21.0065 38.9323H18.97ZM21.8161 33.5347H22.3999C22.685 33.5347 22.9097 33.4698 23.074 33.34C23.2383 33.2102 23.3447 33.029 23.3932 32.7962C23.4396 32.5769 23.4829 32.3487 23.523 32.1115C23.5638 31.8698 23.5997 31.6304 23.6308 31.3931C23.6625 31.1515 23.688 30.921 23.7073 30.7017C23.7293 30.4645 23.6773 30.2832 23.5513 30.1579C23.4259 30.0281 23.2207 29.9632 22.9356 29.9632H22.3518L21.8161 33.5347Z" fill="white"/>
<path d="M18.97 38.9323L20.5811 28.1909H23.2014C24.2152 28.1909 24.9155 28.3945 25.3025 28.8018C25.6946 29.2046 25.8364 29.8737 25.7278 30.8091C25.6992 31.0597 25.6709 31.279 25.6427 31.467C25.619 31.655 25.5908 31.8429 25.5581 32.0309C25.5299 32.2189 25.4925 32.4382 25.4458 32.6888C25.3405 33.2707 25.1694 33.7473 24.9327 34.1188C24.7005 34.4903 24.3818 34.7745 23.9766 34.9714L24.6587 38.9323H22.5L22.0119 35.3071H21.5503L21.0065 38.9323H18.97ZM21.8161 33.5347H22.3999C22.685 33.5347 22.9097 33.4698 23.074 33.34C23.2383 33.2102 23.3447 33.029 23.3932 32.7962C23.4396 32.5769 23.4829 32.3487 23.523 32.1115C23.5638 31.8698 23.5997 31.6304 23.6308 31.3931C23.6625 31.1515 23.688 30.921 23.7073 30.7017C23.7293 30.4645 23.6773 30.2832 23.5513 30.1579C23.4259 30.0281 23.2207 29.9632 22.9356 29.9632H22.3518L21.8161 33.5347Z" fill="white"/>
<path d="M18.97 38.9323L20.5811 28.1909H23.2014C24.2152 28.1909 24.9155 28.3945 25.3025 28.8018C25.6946 29.2046 25.8364 29.8737 25.7278 30.8091C25.6992 31.0597 25.6709 31.279 25.6427 31.467C25.619 31.655 25.5908 31.8429 25.5581 32.0309C25.5299 32.2189 25.4925 32.4382 25.4458 32.6888C25.3405 33.2707 25.1694 33.7473 24.9327 34.1188C24.7005 34.4903 24.3818 34.7745 23.9766 34.9714L24.6587 38.9323H22.5L22.0119 35.3071H21.5503L21.0065 38.9323H18.97ZM21.8161 33.5347H22.3999C22.685 33.5347 22.9097 33.4698 23.074 33.34C23.2383 33.2102 23.3447 33.029 23.3932 32.7962C23.4396 32.5769 23.4829 32.3487 23.523 32.1115C23.5638 31.8698 23.5997 31.6304 23.6308 31.3931C23.6625 31.1515 23.688 30.921 23.7073 30.7017C23.7293 30.4645 23.6773 30.2832 23.5513 30.1579C23.4259 30.0281 23.2207 29.9632 22.9356 29.9632H22.3518L21.8161 33.5347Z" fill="white"/>
<path d="M25.9834 38.9323L27.5944 28.1909H29.631L28.0199 38.9323H25.9834Z" fill="white"/>
<path d="M25.9834 38.9323L27.5944 28.1909H29.631L28.0199 38.9323H25.9834Z" fill="white"/>
<path d="M25.9834 38.9323L27.5944 28.1909H29.631L28.0199 38.9323H25.9834Z" fill="white"/>
<path d="M25.9834 38.9323L27.5944 28.1909H29.631L28.0199 38.9323H25.9834Z" fill="white"/>
<path d="M29.6555 38.9323L31.2666 28.1909H34.2128L34.5139 31.6147L34.4289 37.1599H34.7819L35.0562 32.7962L35.584 28.1909H37.5527L35.9416 38.9323H32.8461L32.5591 35.4145L32.8221 29.9498H32.4419L32.0659 34.8103L31.6242 38.9323H29.6555Z" fill="white"/>
<path d="M29.6555 38.9323L31.2666 28.1909H34.2128L34.5139 31.6147L34.4289 37.1599H34.7819L35.0562 32.7962L35.584 28.1909H37.5527L35.9416 38.9323H32.8461L32.5591 35.4145L32.8221 29.9498H32.4419L32.0659 34.8103L31.6242 38.9323H29.6555Z" fill="white"/>
<path d="M29.6555 38.9323L31.2666 28.1909H34.2128L34.5139 31.6147L34.4289 37.1599H34.7819L35.0562 32.7962L35.584 28.1909H37.5527L35.9416 38.9323H32.8461L32.5591 35.4145L32.8221 29.9498H32.4419L32.0659 34.8103L31.6242 38.9323H29.6555Z" fill="white"/>
<path d="M29.6555 38.9323L31.2666 28.1909H34.2128L34.5139 31.6147L34.4289 37.1599H34.7819L35.0562 32.7962L35.584 28.1909H37.5527L35.9416 38.9323H32.8461L32.5591 35.4145L32.8221 29.9498H32.4419L32.0659 34.8103L31.6242 38.9323H29.6555Z" fill="white"/>
<path d="M40.3879 39.0666C39.7045 39.0666 39.1703 38.977 38.7854 38.798C38.401 38.6145 38.1434 38.3258 38.0124 37.932C37.882 37.5337 37.8539 37.0123 37.9279 36.3678C37.9707 35.9918 38.0235 35.5644 38.0863 35.0855C38.1543 34.6021 38.2265 34.1054 38.3031 33.5951C38.3796 33.0849 38.4557 32.5926 38.5314 32.1182C38.6116 31.6438 38.6857 31.2253 38.7536 30.8628C38.8828 30.1825 39.0756 29.6365 39.3319 29.2247C39.5928 28.813 39.9407 28.5153 40.3755 28.3318C40.8149 28.1483 41.3694 28.0566 42.0392 28.0566C42.9896 28.0566 43.6508 28.2647 44.0229 28.6809C44.4001 29.0927 44.546 29.7797 44.4605 30.7419C44.4432 30.9478 44.413 31.194 44.3701 31.4804C44.3278 31.7624 44.2841 32.0085 44.239 32.2189H42.2024C42.2536 31.9683 42.3067 31.6594 42.3617 31.2924C42.4174 30.921 42.457 30.6122 42.4803 30.366C42.499 30.1512 42.4491 29.9856 42.3308 29.8692C42.2125 29.7528 42.0334 29.6947 41.7936 29.6947C41.5311 29.6947 41.3209 29.7528 41.1632 29.8692C41.01 29.9856 40.9105 30.1512 40.8647 30.366C40.767 30.8359 40.6705 31.3439 40.575 31.8899C40.4802 32.4315 40.3902 32.9865 40.3049 33.5549C40.2197 34.1233 40.1429 34.6805 40.0746 35.2265C40.0069 35.768 39.9514 36.2738 39.9081 36.7437C39.8888 36.963 39.9379 37.1331 40.0556 37.2539C40.1784 37.3703 40.3711 37.4285 40.6336 37.4285C40.8915 37.4285 41.1062 37.3703 41.2775 37.2539C41.454 37.1331 41.5678 36.963 41.6188 36.7437C41.6433 36.6408 41.6679 36.5065 41.6928 36.3409C41.7228 36.1708 41.748 36.003 41.7683 35.8374C41.7938 35.6673 41.8098 35.5308 41.8162 35.4279H41.0694L41.3312 33.6824H44.0602C44.0217 34.0897 43.9636 34.5373 43.886 35.0251C43.8089 35.5085 43.7282 35.956 43.6438 36.3678C43.4536 37.3345 43.1055 38.026 42.5995 38.4422C42.0981 38.8584 41.3609 39.0666 40.3879 39.0666Z" fill="white"/>
<path d="M40.3879 39.0666C39.7045 39.0666 39.1703 38.977 38.7854 38.798C38.401 38.6145 38.1434 38.3258 38.0124 37.932C37.882 37.5337 37.8539 37.0123 37.9279 36.3678C37.9707 35.9918 38.0235 35.5644 38.0863 35.0855C38.1543 34.6021 38.2265 34.1054 38.3031 33.5951C38.3796 33.0849 38.4557 32.5926 38.5314 32.1182C38.6116 31.6438 38.6857 31.2253 38.7536 30.8628C38.8828 30.1825 39.0756 29.6365 39.3319 29.2247C39.5928 28.813 39.9407 28.5153 40.3755 28.3318C40.8149 28.1483 41.3694 28.0566 42.0392 28.0566C42.9896 28.0566 43.6508 28.2647 44.0229 28.6809C44.4001 29.0927 44.546 29.7797 44.4605 30.7419C44.4432 30.9478 44.413 31.194 44.3701 31.4804C44.3278 31.7624 44.2841 32.0085 44.239 32.2189H42.2024C42.2536 31.9683 42.3067 31.6594 42.3617 31.2924C42.4174 30.921 42.457 30.6122 42.4803 30.366C42.499 30.1512 42.4491 29.9856 42.3308 29.8692C42.2125 29.7528 42.0334 29.6947 41.7936 29.6947C41.5311 29.6947 41.3209 29.7528 41.1632 29.8692C41.01 29.9856 40.9105 30.1512 40.8647 30.366C40.767 30.8359 40.6705 31.3439 40.575 31.8899C40.4802 32.4315 40.3902 32.9865 40.3049 33.5549C40.2197 34.1233 40.1429 34.6805 40.0746 35.2265C40.0069 35.768 39.9514 36.2738 39.9081 36.7437C39.8888 36.963 39.9379 37.1331 40.0556 37.2539C40.1784 37.3703 40.3711 37.4285 40.6336 37.4285C40.8915 37.4285 41.1062 37.3703 41.2775 37.2539C41.454 37.1331 41.5678 36.963 41.6188 36.7437C41.6433 36.6408 41.6679 36.5065 41.6928 36.3409C41.7228 36.1708 41.748 36.003 41.7683 35.8374C41.7938 35.6673 41.8098 35.5308 41.8162 35.4279H41.0694L41.3312 33.6824H44.0602C44.0217 34.0897 43.9636 34.5373 43.886 35.0251C43.8089 35.5085 43.7282 35.956 43.6438 36.3678C43.4536 37.3345 43.1055 38.026 42.5995 38.4422C42.0981 38.8584 41.3609 39.0666 40.3879 39.0666Z" fill="white"/>
<path d="M40.3879 39.0666C39.7045 39.0666 39.1703 38.977 38.7854 38.798C38.401 38.6145 38.1434 38.3258 38.0124 37.932C37.882 37.5337 37.8539 37.0123 37.9279 36.3678C37.9707 35.9918 38.0235 35.5644 38.0863 35.0855C38.1543 34.6021 38.2265 34.1054 38.3031 33.5951C38.3796 33.0849 38.4557 32.5926 38.5314 32.1182C38.6116 31.6438 38.6857 31.2253 38.7536 30.8628C38.8828 30.1825 39.0756 29.6365 39.3319 29.2247C39.5928 28.813 39.9407 28.5153 40.3755 28.3318C40.8149 28.1483 41.3694 28.0566 42.0392 28.0566C42.9896 28.0566 43.6508 28.2647 44.0229 28.6809C44.4001 29.0927 44.546 29.7797 44.4605 30.7419C44.4432 30.9478 44.413 31.194 44.3701 31.4804C44.3278 31.7624 44.2841 32.0085 44.239 32.2189H42.2024C42.2536 31.9683 42.3067 31.6594 42.3617 31.2924C42.4174 30.921 42.457 30.6122 42.4803 30.366C42.499 30.1512 42.4491 29.9856 42.3308 29.8692C42.2125 29.7528 42.0334 29.6947 41.7936 29.6947C41.5311 29.6947 41.3209 29.7528 41.1632 29.8692C41.01 29.9856 40.9105 30.1512 40.8647 30.366C40.767 30.8359 40.6705 31.3439 40.575 31.8899C40.4802 32.4315 40.3902 32.9865 40.3049 33.5549C40.2197 34.1233 40.1429 34.6805 40.0746 35.2265C40.0069 35.768 39.9514 36.2738 39.9081 36.7437C39.8888 36.963 39.9379 37.1331 40.0556 37.2539C40.1784 37.3703 40.3711 37.4285 40.6336 37.4285C40.8915 37.4285 41.1062 37.3703 41.2775 37.2539C41.454 37.1331 41.5678 36.963 41.6188 36.7437C41.6433 36.6408 41.6679 36.5065 41.6928 36.3409C41.7228 36.1708 41.748 36.003 41.7683 35.8374C41.7938 35.6673 41.8098 35.5308 41.8162 35.4279H41.0694L41.3312 33.6824H44.0602C44.0217 34.0897 43.9636 34.5373 43.886 35.0251C43.8089 35.5085 43.7282 35.956 43.6438 36.3678C43.4536 37.3345 43.1055 38.026 42.5995 38.4422C42.0981 38.8584 41.3609 39.0666 40.3879 39.0666Z" fill="white"/>
<path d="M40.3879 39.0666C39.7045 39.0666 39.1703 38.977 38.7854 38.798C38.401 38.6145 38.1434 38.3258 38.0124 37.932C37.882 37.5337 37.8539 37.0123 37.9279 36.3678C37.9707 35.9918 38.0235 35.5644 38.0863 35.0855C38.1543 34.6021 38.2265 34.1054 38.3031 33.5951C38.3796 33.0849 38.4557 32.5926 38.5314 32.1182C38.6116 31.6438 38.6857 31.2253 38.7536 30.8628C38.8828 30.1825 39.0756 29.6365 39.3319 29.2247C39.5928 28.813 39.9407 28.5153 40.3755 28.3318C40.8149 28.1483 41.3694 28.0566 42.0392 28.0566C42.9896 28.0566 43.6508 28.2647 44.0229 28.6809C44.4001 29.0927 44.546 29.7797 44.4605 30.7419C44.4432 30.9478 44.413 31.194 44.3701 31.4804C44.3278 31.7624 44.2841 32.0085 44.239 32.2189H42.2024C42.2536 31.9683 42.3067 31.6594 42.3617 31.2924C42.4174 30.921 42.457 30.6122 42.4803 30.366C42.499 30.1512 42.4491 29.9856 42.3308 29.8692C42.2125 29.7528 42.0334 29.6947 41.7936 29.6947C41.5311 29.6947 41.3209 29.7528 41.1632 29.8692C41.01 29.9856 40.9105 30.1512 40.8647 30.366C40.767 30.8359 40.6705 31.3439 40.575 31.8899C40.4802 32.4315 40.3902 32.9865 40.3049 33.5549C40.2197 34.1233 40.1429 34.6805 40.0746 35.2265C40.0069 35.768 39.9514 36.2738 39.9081 36.7437C39.8888 36.963 39.9379 37.1331 40.0556 37.2539C40.1784 37.3703 40.3711 37.4285 40.6336 37.4285C40.8915 37.4285 41.1062 37.3703 41.2775 37.2539C41.454 37.1331 41.5678 36.963 41.6188 36.7437C41.6433 36.6408 41.6679 36.5065 41.6928 36.3409C41.7228 36.1708 41.748 36.003 41.7683 35.8374C41.7938 35.6673 41.8098 35.5308 41.8162 35.4279H41.0694L41.3312 33.6824H44.0602C44.0217 34.0897 43.9636 34.5373 43.886 35.0251C43.8089 35.5085 43.7282 35.956 43.6438 36.3678C43.4536 37.3345 43.1055 38.026 42.5995 38.4422C42.0981 38.8584 41.3609 39.0666 40.3879 39.0666Z" fill="white"/>
<path d="M49.4859 38.9323L50.8312 29.9632H49.0865L49.3524 28.1909H54.8782L54.6124 29.9632H52.8677L51.5225 38.9323H49.4859Z" fill="white"/>
<path d="M49.4859 38.9323L50.8312 29.9632H49.0865L49.3524 28.1909H54.8782L54.6124 29.9632H52.8677L51.5225 38.9323H49.4859Z" fill="white"/>
<path d="M49.4859 38.9323L50.8312 29.9632H49.0865L49.3524 28.1909H54.8782L54.6124 29.9632H52.8677L51.5225 38.9323H49.4859Z" fill="white"/>
<path d="M49.4859 38.9323L50.8312 29.9632H49.0865L49.3524 28.1909H54.8782L54.6124 29.9632H52.8677L51.5225 38.9323H49.4859Z" fill="white"/>
<path d="M54.434 38.9323L56.0451 28.1909H58.0816L57.4231 32.5814H58.8487L59.5072 28.1909H61.5437L59.9327 38.9323H57.8961L58.5828 34.3538H57.1573L56.4705 38.9323H54.434Z" fill="white"/>
<path d="M54.434 38.9323L56.0451 28.1909H58.0816L57.4231 32.5814H58.8487L59.5072 28.1909H61.5437L59.9327 38.9323H57.8961L58.5828 34.3538H57.1573L56.4705 38.9323H54.434Z" fill="white"/>
<path d="M54.434 38.9323L56.0451 28.1909H58.0816L57.4231 32.5814H58.8487L59.5072 28.1909H61.5437L59.9327 38.9323H57.8961L58.5828 34.3538H57.1573L56.4705 38.9323H54.434Z" fill="white"/>
<path d="M54.434 38.9323L56.0451 28.1909H58.0816L57.4231 32.5814H58.8487L59.5072 28.1909H61.5437L59.9327 38.9323H57.8961L58.5828 34.3538H57.1573L56.4705 38.9323H54.434Z" fill="white"/>
<path d="M61.5667 38.9323L63.1777 28.1909H67.8754L67.6096 29.9632H64.9485L64.5558 32.5814H67.0811L66.8153 34.3538H64.2899L63.8691 37.1599H66.5301L66.2643 38.9323H61.5667Z" fill="white"/>
<path d="M61.5667 38.9323L63.1777 28.1909H67.8754L67.6096 29.9632H64.9485L64.5558 32.5814H67.0811L66.8153 34.3538H64.2899L63.8691 37.1599H66.5301L66.2643 38.9323H61.5667Z" fill="white"/>
<path d="M61.5667 38.9323L63.1777 28.1909H67.8754L67.6096 29.9632H64.9485L64.5558 32.5814H67.0811L66.8153 34.3538H64.2899L63.8691 37.1599H66.5301L66.2643 38.9323H61.5667Z" fill="white"/>
<path d="M61.5667 38.9323L63.1777 28.1909H67.8754L67.6096 29.9632H64.9485L64.5558 32.5814H67.0811L66.8153 34.3538H64.2899L63.8691 37.1599H66.5301L66.2643 38.9323H61.5667Z" fill="white"/>
<path d="M107.667 31.0124L111.455 8.30214H115.819L112.031 31.0124H107.667Z" fill="white"/>
<path d="M107.667 31.0124L111.455 8.30214H115.819L112.031 31.0124H107.667Z" fill="white"/>
<path d="M107.667 31.0124L111.455 8.30214H115.819L112.031 31.0124H107.667Z" fill="white"/>
<path d="M107.667 31.0124L111.455 8.30214H115.819L112.031 31.0124H107.667Z" fill="#E3E657"/>
<path d="M108.127 0.897479C108.848 1.25012 109.239 1.80015 109.3 2.54759H105.025C105.015 2.36313 104.885 2.21818 104.637 2.11275C104.356 1.99374 103.941 1.93424 103.392 1.93424C102.844 1.93424 102.406 1.99374 102.08 2.11275C101.8 2.21818 101.623 2.36313 101.55 2.54759H97.2638C97.5384 1.80015 98.0973 1.25012 98.9405 0.897479C99.9578 0.47179 101.526 0.258946 103.644 0.258946C105.772 0.258946 107.267 0.47179 108.127 0.897479Z" fill="white"/>
<path d="M108.127 0.897479C108.848 1.25012 109.239 1.80015 109.3 2.54759H105.025C105.015 2.36313 104.885 2.21818 104.637 2.11275C104.356 1.99374 103.941 1.93424 103.392 1.93424C102.844 1.93424 102.406 1.99374 102.08 2.11275C101.8 2.21818 101.623 2.36313 101.55 2.54759H97.2638C97.5384 1.80015 98.0973 1.25012 98.9405 0.897479C99.9578 0.47179 101.526 0.258946 103.644 0.258946C105.772 0.258946 107.267 0.47179 108.127 0.897479Z" fill="white"/>
<path d="M108.127 0.897479C108.848 1.25012 109.239 1.80015 109.3 2.54759H105.025C105.015 2.36313 104.885 2.21818 104.637 2.11275C104.356 1.99374 103.941 1.93424 103.392 1.93424C102.844 1.93424 102.406 1.99374 102.08 2.11275C101.8 2.21818 101.623 2.36313 101.55 2.54759H97.2638C97.5384 1.80015 98.0973 1.25012 98.9405 0.897479C99.9578 0.47179 101.526 0.258946 103.644 0.258946C105.772 0.258946 107.267 0.47179 108.127 0.897479Z" fill="white"/>
<path d="M108.127 0.897479C108.848 1.25012 109.239 1.80015 109.3 2.54759H105.025C105.015 2.36313 104.885 2.21818 104.637 2.11275C104.356 1.99374 103.941 1.93424 103.392 1.93424C102.844 1.93424 102.406 1.99374 102.08 2.11275C101.8 2.21818 101.623 2.36313 101.55 2.54759H97.2638C97.5384 1.80015 98.0973 1.25012 98.9405 0.897479C99.9578 0.47179 101.526 0.258946 103.644 0.258946C105.772 0.258946 107.267 0.47179 108.127 0.897479Z" fill="#E3E657"/>
<path d="M120.247 2.54759H124.531C124.632 2.36313 124.814 2.21818 125.077 2.11275C125.374 1.99374 125.812 1.93424 126.39 1.93424C126.929 1.93424 127.349 1.99374 127.648 2.11275C127.923 2.21818 128.066 2.36313 128.079 2.54759H132.202C132.128 1.80015 131.73 1.25012 131.009 0.897479C130.148 0.47179 128.692 0.258946 126.641 0.258946C125.187 0.258946 124.008 0.35278 123.104 0.540449C122.2 0.723541 121.511 1.01649 121.036 1.41929C120.685 1.72356 120.422 2.09967 120.247 2.54759Z" fill="white"/>
<path d="M120.247 2.54759H124.531C124.632 2.36313 124.814 2.21818 125.077 2.11275C125.374 1.99374 125.812 1.93424 126.39 1.93424C126.929 1.93424 127.349 1.99374 127.648 2.11275C127.923 2.21818 128.066 2.36313 128.079 2.54759H132.202C132.128 1.80015 131.73 1.25012 131.009 0.897479C130.148 0.47179 128.692 0.258946 126.641 0.258946C125.187 0.258946 124.008 0.35278 123.104 0.540449C122.2 0.723541 121.511 1.01649 121.036 1.41929C120.685 1.72356 120.422 2.09967 120.247 2.54759Z" fill="white"/>
<path d="M120.247 2.54759H124.531C124.632 2.36313 124.814 2.21818 125.077 2.11275C125.374 1.99374 125.812 1.93424 126.39 1.93424C126.929 1.93424 127.349 1.99374 127.648 2.11275C127.923 2.21818 128.066 2.36313 128.079 2.54759H132.202C132.128 1.80015 131.73 1.25012 131.009 0.897479C130.148 0.47179 128.692 0.258946 126.641 0.258946C125.187 0.258946 124.008 0.35278 123.104 0.540449C122.2 0.723541 121.511 1.01649 121.036 1.41929C120.685 1.72356 120.422 2.09967 120.247 2.54759Z" fill="white"/>
<path d="M120.247 2.54759H124.531C124.632 2.36313 124.814 2.21818 125.077 2.11275C125.374 1.99374 125.812 1.93424 126.39 1.93424C126.929 1.93424 127.349 1.99374 127.648 2.11275C127.923 2.21818 128.066 2.36313 128.079 2.54759H132.202C132.128 1.80015 131.73 1.25012 131.009 0.897479C130.148 0.47179 128.692 0.258946 126.641 0.258946C125.187 0.258946 124.008 0.35278 123.104 0.540449C122.2 0.723541 121.511 1.01649 121.036 1.41929C120.685 1.72356 120.422 2.09967 120.247 2.54759Z" fill="#E3E657"/>
<path d="M94.1489 0.396265L93.8257 2.54759H89.7952L89.9601 0.396265H94.1489Z" fill="white"/>
<path d="M94.1489 0.396265L93.8257 2.54759H89.7952L89.9601 0.396265H94.1489Z" fill="white"/>
<path d="M94.1489 0.396265L93.8257 2.54759H89.7952L89.9601 0.396265H94.1489Z" fill="white"/>
<path d="M94.1489 0.396265L93.8257 2.54759H89.7952L89.9601 0.396265H94.1489Z" fill="#E3E657"/>
<path d="M87.0423 0.396265L87.784 2.54759H84.396L84.3743 2.19514H83.5654L83.5657 2.54759H80.4503L80.7734 0.396265H87.0423Z" fill="white"/>
<path d="M87.0423 0.396265L87.784 2.54759H84.396L84.3743 2.19514H83.5654L83.5657 2.54759H80.4503L80.7734 0.396265H87.0423Z" fill="white"/>
<path d="M87.0423 0.396265L87.784 2.54759H84.396L84.3743 2.19514H83.5654L83.5657 2.54759H80.4503L80.7734 0.396265H87.0423Z" fill="white"/>
<path d="M87.0423 0.396265L87.784 2.54759H84.396L84.3743 2.19514H83.5654L83.5657 2.54759H80.4503L80.7734 0.396265H87.0423Z" fill="#E3E657"/>
<path d="M140.061 2.54759H135.728L136.051 0.396266H146.047L145.774 2.20887H140.112L140.061 2.54759Z" fill="white"/>
<path d="M140.061 2.54759H135.728L136.051 0.396266H146.047L145.774 2.20887H140.112L140.061 2.54759Z" fill="white"/>
<path d="M140.061 2.54759H135.728L136.051 0.396266H146.047L145.774 2.20887H140.112L140.061 2.54759Z" fill="white"/>
<path d="M140.061 2.54759H135.728L136.051 0.396266H146.047L145.774 2.20887H140.112L140.061 2.54759Z" fill="#E3E657"/>
<path d="M116.807 2.41027H112.474L112.797 0.258946H117.13L116.807 2.41027Z" fill="white"/>
<path d="M116.807 2.41027H112.474L112.797 0.258946H117.13L116.807 2.41027Z" fill="white"/>
<path d="M116.807 2.41027H112.474L112.797 0.258946H117.13L116.807 2.41027Z" fill="white"/>
<path d="M116.807 2.41027H112.474L112.797 0.258946H117.13L116.807 2.41027Z" fill="#E3E657"/>
<path d="M107.609 4.34797C108.285 4.99946 108.606 6.01564 108.572 7.39651H104.296C104.31 7.05572 104.199 6.78793 103.964 6.59315C103.698 6.37328 103.291 6.26335 102.742 6.26335C102.193 6.26335 101.748 6.37328 101.407 6.59315C101.113 6.78793 100.918 7.05572 100.822 7.39651H96.5354C96.9051 6.01564 97.534 4.99946 98.4221 4.34797C99.4936 3.56152 101.089 3.1683 103.207 3.1683C105.335 3.1683 106.802 3.56152 107.609 4.34797Z" fill="white"/>
<path d="M107.609 4.34797C108.285 4.99946 108.606 6.01564 108.572 7.39651H104.296C104.31 7.05572 104.199 6.78793 103.964 6.59315C103.698 6.37328 103.291 6.26335 102.742 6.26335C102.193 6.26335 101.748 6.37328 101.407 6.59315C101.113 6.78793 100.918 7.05572 100.822 7.39651H96.5354C96.9051 6.01564 97.534 4.99946 98.4221 4.34797C99.4936 3.56152 101.089 3.1683 103.207 3.1683C105.335 3.1683 106.802 3.56152 107.609 4.34797Z" fill="white"/>
<path d="M107.609 4.34797C108.285 4.99946 108.606 6.01564 108.572 7.39651H104.296C104.31 7.05572 104.199 6.78793 103.964 6.59315C103.698 6.37328 103.291 6.26335 102.742 6.26335C102.193 6.26335 101.748 6.37328 101.407 6.59315C101.113 6.78793 100.918 7.05572 100.822 7.39651H96.5354C96.9051 6.01564 97.534 4.99946 98.4221 4.34797C99.4936 3.56152 101.089 3.1683 103.207 3.1683C105.335 3.1683 106.802 3.56152 107.609 4.34797Z" fill="white"/>
<path d="M107.609 4.34797C108.285 4.99946 108.606 6.01564 108.572 7.39651H104.296C104.31 7.05572 104.199 6.78793 103.964 6.59315C103.698 6.37328 103.291 6.26335 102.742 6.26335C102.193 6.26335 101.748 6.37328 101.407 6.59315C101.113 6.78793 100.918 7.05572 100.822 7.39651H96.5354C96.9051 6.01564 97.534 4.99946 98.4221 4.34797C99.4936 3.56152 101.089 3.1683 103.207 3.1683C105.335 3.1683 106.802 3.56152 107.609 4.34797Z" fill="#E3E657"/>
<path d="M123.802 7.39651H119.518C119.75 6.56898 120.061 5.87414 120.451 5.312C120.977 4.56784 121.704 4.02662 122.631 3.68837C123.559 3.34165 124.75 3.1683 126.204 3.1683C128.255 3.1683 129.684 3.56152 130.49 4.34797C131.167 4.99946 131.494 6.01564 131.474 7.39651H127.351C127.361 7.05572 127.236 6.78793 126.975 6.59315C126.691 6.37328 126.279 6.26335 125.739 6.26335C125.162 6.26335 124.717 6.37328 124.404 6.59315C124.128 6.78793 123.927 7.05572 123.802 7.39651Z" fill="white"/>
<path d="M123.802 7.39651H119.518C119.75 6.56898 120.061 5.87414 120.451 5.312C120.977 4.56784 121.704 4.02662 122.631 3.68837C123.559 3.34165 124.75 3.1683 126.204 3.1683C128.255 3.1683 129.684 3.56152 130.49 4.34797C131.167 4.99946 131.494 6.01564 131.474 7.39651H127.351C127.361 7.05572 127.236 6.78793 126.975 6.59315C126.691 6.37328 126.279 6.26335 125.739 6.26335C125.162 6.26335 124.717 6.37328 124.404 6.59315C124.128 6.78793 123.927 7.05572 123.802 7.39651Z" fill="white"/>
<path d="M123.802 7.39651H119.518C119.75 6.56898 120.061 5.87414 120.451 5.312C120.977 4.56784 121.704 4.02662 122.631 3.68837C123.559 3.34165 124.75 3.1683 126.204 3.1683C128.255 3.1683 129.684 3.56152 130.49 4.34797C131.167 4.99946 131.494 6.01564 131.474 7.39651H127.351C127.361 7.05572 127.236 6.78793 126.975 6.59315C126.691 6.37328 126.279 6.26335 125.739 6.26335C125.162 6.26335 124.717 6.37328 124.404 6.59315C124.128 6.78793 123.927 7.05572 123.802 7.39651Z" fill="white"/>
<path d="M123.802 7.39651H119.518C119.75 6.56898 120.061 5.87414 120.451 5.312C120.977 4.56784 121.704 4.02662 122.631 3.68837C123.559 3.34165 124.75 3.1683 126.204 3.1683C128.255 3.1683 129.684 3.56152 130.49 4.34797C131.167 4.99946 131.494 6.01564 131.474 7.39651H127.351C127.361 7.05572 127.236 6.78793 126.975 6.59315C126.691 6.37328 126.279 6.26335 125.739 6.26335C125.162 6.26335 124.717 6.37328 124.404 6.59315C124.128 6.78793 123.927 7.05572 123.802 7.39651Z" fill="#E3E657"/>
<path d="M93.0973 7.39651L93.6944 3.42199H89.5055L89.0668 7.39651H93.0973Z" fill="white"/>
<path d="M93.0973 7.39651L93.6944 3.42199H89.5055L89.0668 7.39651H93.0973Z" fill="white"/>
<path d="M93.0973 7.39651L93.6944 3.42199H89.5055L89.0668 7.39651H93.0973Z" fill="white"/>
<path d="M93.0973 7.39651L93.6944 3.42199H89.5055L89.0668 7.39651H93.0973Z" fill="#E3E657"/>
<path d="M87.0556 7.39651L86.5878 3.42199H80.3189L79.7218 7.39651H82.8373L82.8819 6.74537H83.6907L83.6676 7.39651H87.0556Z" fill="white"/>
<path d="M87.0556 7.39651L86.5878 3.42199H80.3189L79.7218 7.39651H82.8373L82.8819 6.74537H83.6907L83.6676 7.39651H87.0556Z" fill="white"/>
<path d="M87.0556 7.39651L86.5878 3.42199H80.3189L79.7218 7.39651H82.8373L82.8819 6.74537H83.6907L83.6676 7.39651H87.0556Z" fill="white"/>
<path d="M87.0556 7.39651L86.5878 3.42199H80.3189L79.7218 7.39651H82.8373L82.8819 6.74537H83.6907L83.6676 7.39651H87.0556Z" fill="#E3E657"/>
<path d="M134.999 7.39651H139.333L139.427 6.77073H145.089L145.592 3.42199H135.597L134.999 7.39651Z" fill="white"/>
<path d="M134.999 7.39651H139.333L139.427 6.77073H145.089L145.592 3.42199H135.597L134.999 7.39651Z" fill="white"/>
<path d="M134.999 7.39651H139.333L139.427 6.77073H145.089L145.592 3.42199H135.597L134.999 7.39651Z" fill="white"/>
<path d="M134.999 7.39651H139.333L139.427 6.77073H145.089L145.592 3.42199H135.597L134.999 7.39651Z" fill="#E3E657"/>
<path d="M111.725 7.39651H116.058L116.655 3.42199H112.322L111.725 7.39651Z" fill="white"/>
<path d="M111.725 7.39651H116.058L116.655 3.42199H112.322L111.725 7.39651Z" fill="white"/>
<path d="M111.725 7.39651H116.058L116.655 3.42199H112.322L111.725 7.39651Z" fill="white"/>
<path d="M111.725 7.39651H116.058L116.655 3.42199H112.322L111.725 7.39651Z" fill="#E3E657"/>
<path d="M134.864 8.30103L131.452 31.0082H141.519L142.082 27.2615H136.379L137.27 21.3292H142.682L143.245 17.5826H137.833L138.665 12.0477H144.367L144.93 8.30103H134.864Z" fill="white"/>
<path d="M134.864 8.30103L131.452 31.0082H141.519L142.082 27.2615H136.379L137.27 21.3292H142.682L143.245 17.5826H137.833L138.665 12.0477H144.367L144.93 8.30103H134.864Z" fill="white"/>
<path d="M134.864 8.30103L131.452 31.0082H141.519L142.082 27.2615H136.379L137.27 21.3292H142.682L143.245 17.5826H137.833L138.665 12.0477H144.367L144.93 8.30103H134.864Z" fill="white"/>
<path d="M134.864 8.30103L131.452 31.0082H141.519L142.082 27.2615H136.379L137.27 21.3292H142.682L143.245 17.5826H137.833L138.665 12.0477H144.367L144.93 8.30103H134.864Z" fill="#E3E657"/>
<path d="M79.99 32.3286H75.9764L75.4411 35.8923H79.6299L79.99 32.3286Z" fill="white"/>
<path d="M79.99 32.3286H75.9764L75.4411 35.8923H79.6299L79.99 32.3286Z" fill="white"/>
<path d="M79.99 32.3286H75.9764L75.4411 35.8923H79.6299L79.99 32.3286Z" fill="white"/>
<path d="M79.99 32.3286H75.9764L75.4411 35.8923H79.6299L79.99 32.3286Z" fill="#E3E657"/>
<path d="M85.5239 32.3286L85.5252 32.6104H86.2763L86.2904 32.3286H89.3519L88.8166 35.8923H82.2299L81.817 32.3286H85.5239Z" fill="white"/>
<path d="M85.5239 32.3286L85.5252 32.6104H86.2763L86.2904 32.3286H89.3519L88.8166 35.8923H82.2299L81.817 32.3286H85.5239Z" fill="white"/>
<path d="M85.5239 32.3286L85.5252 32.6104H86.2763L86.2904 32.3286H89.3519L88.8166 35.8923H82.2299L81.817 32.3286H85.5239Z" fill="white"/>
<path d="M85.5239 32.3286L85.5252 32.6104H86.2763L86.2904 32.3286H89.3519L88.8166 35.8923H82.2299L81.817 32.3286H85.5239Z" fill="#E3E657"/>
<path d="M98.2538 36.1409C96.1353 36.1409 94.6573 35.7556 93.8197 34.9848C93.1877 34.3964 92.8613 33.511 92.8404 32.3286H97.1734C97.226 32.5085 97.3257 32.6604 97.4725 32.7844C97.7483 32.9999 98.1606 33.1076 98.7095 33.1076C99.2776 33.1076 99.7223 32.9999 100.044 32.7844C100.222 32.6604 100.362 32.5085 100.464 32.3286H104.773C104.389 33.511 103.8 34.3964 103.006 34.9848C101.966 35.7556 100.382 36.1409 98.2538 36.1409Z" fill="white"/>
<path d="M98.2538 36.1409C96.1353 36.1409 94.6573 35.7556 93.8197 34.9848C93.1877 34.3964 92.8613 33.511 92.8404 32.3286H97.1734C97.226 32.5085 97.3257 32.6604 97.4725 32.7844C97.7483 32.9999 98.1606 33.1076 98.7095 33.1076C99.2776 33.1076 99.7223 32.9999 100.044 32.7844C100.222 32.6604 100.362 32.5085 100.464 32.3286H104.773C104.389 33.511 103.8 34.3964 103.006 34.9848C101.966 35.7556 100.382 36.1409 98.2538 36.1409Z" fill="white"/>
<path d="M98.2538 36.1409C96.1353 36.1409 94.6573 35.7556 93.8197 34.9848C93.1877 34.3964 92.8613 33.511 92.8404 32.3286H97.1734C97.226 32.5085 97.3257 32.6604 97.4725 32.7844C97.7483 32.9999 98.1606 33.1076 98.7095 33.1076C99.2776 33.1076 99.7223 32.9999 100.044 32.7844C100.222 32.6604 100.362 32.5085 100.464 32.3286H104.773C104.389 33.511 103.8 34.3964 103.006 34.9848C101.966 35.7556 100.382 36.1409 98.2538 36.1409Z" fill="white"/>
<path d="M98.2538 36.1409C96.1353 36.1409 94.6573 35.7556 93.8197 34.9848C93.1877 34.3964 92.8613 33.511 92.8404 32.3286H97.1734C97.226 32.5085 97.3257 32.6604 97.4725 32.7844C97.7483 32.9999 98.1606 33.1076 98.7095 33.1076C99.2776 33.1076 99.7223 32.9999 100.044 32.7844C100.222 32.6604 100.362 32.5085 100.464 32.3286H104.773C104.389 33.511 103.8 34.3964 103.006 34.9848C101.966 35.7556 100.382 36.1409 98.2538 36.1409Z" fill="#E3E657"/>
<path d="M120.441 32.7844C120.299 32.6604 120.199 32.5085 120.14 32.3286H115.944C115.979 33.511 116.294 34.3964 116.889 34.9848C117.679 35.7556 119.133 36.1409 121.251 36.1409C123.389 36.1409 124.968 35.7556 125.989 34.9848C126.776 34.3964 127.366 33.511 127.759 32.3286H123.417C123.305 32.5085 123.165 32.6604 122.997 32.7844C122.705 32.9999 122.275 33.1076 121.707 33.1076C121.129 33.1076 120.707 32.9999 120.441 32.7844Z" fill="white"/>
<path d="M120.441 32.7844C120.299 32.6604 120.199 32.5085 120.14 32.3286H115.944C115.979 33.511 116.294 34.3964 116.889 34.9848C117.679 35.7556 119.133 36.1409 121.251 36.1409C123.389 36.1409 124.968 35.7556 125.989 34.9848C126.776 34.3964 127.366 33.511 127.759 32.3286H123.417C123.305 32.5085 123.165 32.6604 122.997 32.7844C122.705 32.9999 122.275 33.1076 121.707 33.1076C121.129 33.1076 120.707 32.9999 120.441 32.7844Z" fill="white"/>
<path d="M120.441 32.7844C120.299 32.6604 120.199 32.5085 120.14 32.3286H115.944C115.979 33.511 116.294 34.3964 116.889 34.9848C117.679 35.7556 119.133 36.1409 121.251 36.1409C123.389 36.1409 124.968 35.7556 125.989 34.9848C126.776 34.3964 127.366 33.511 127.759 32.3286H123.417C123.305 32.5085 123.165 32.6604 122.997 32.7844C122.705 32.9999 122.275 33.1076 121.707 33.1076C121.129 33.1076 120.707 32.9999 120.441 32.7844Z" fill="white"/>
<path d="M120.441 32.7844C120.299 32.6604 120.199 32.5085 120.14 32.3286H115.944C115.979 33.511 116.294 34.3964 116.889 34.9848C117.679 35.7556 119.133 36.1409 121.251 36.1409C123.389 36.1409 124.968 35.7556 125.989 34.9848C126.776 34.3964 127.366 33.511 127.759 32.3286H123.417C123.305 32.5085 123.165 32.6604 122.997 32.7844C122.705 32.9999 122.275 33.1076 121.707 33.1076C121.129 33.1076 120.707 32.9999 120.441 32.7844Z" fill="#E3E657"/>
<path d="M131.254 32.3286L130.719 35.8923H140.714L141.207 32.6104H135.545L135.587 32.3286H131.254Z" fill="white"/>
<path d="M131.254 32.3286L130.719 35.8923H140.714L141.207 32.6104H135.545L135.587 32.3286H131.254Z" fill="white"/>
<path d="M131.254 32.3286L130.719 35.8923H140.714L141.207 32.6104H135.545L135.587 32.3286H131.254Z" fill="white"/>
<path d="M131.254 32.3286L130.719 35.8923H140.714L141.207 32.6104H135.545L135.587 32.3286H131.254Z" fill="#E3E657"/>
<path d="M107.979 32.3286L107.444 35.8923H111.777L112.313 32.3286H107.979Z" fill="white"/>
<path d="M107.979 32.3286L107.444 35.8923H111.777L112.313 32.3286H107.979Z" fill="white"/>
<path d="M107.979 32.3286L107.444 35.8923H111.777L112.313 32.3286H107.979Z" fill="white"/>
<path d="M107.979 32.3286L107.444 35.8923H111.777L112.313 32.3286H107.979Z" fill="#E3E657"/>
<path d="M75.258 37.1107H79.2716L79.1745 38.9238H74.9857L75.258 37.1107Z" fill="white"/>
<path d="M75.258 37.1107H79.2716L79.1745 38.9238H74.9857L75.258 37.1107Z" fill="white"/>
<path d="M75.258 37.1107H79.2716L79.1745 38.9238H74.9857L75.258 37.1107Z" fill="white"/>
<path d="M75.258 37.1107H79.2716L79.1745 38.9238H74.9857L75.258 37.1107Z" fill="#E3E657"/>
<path d="M84.8276 37.2541L84.8055 37.1107H81.0986L81.7745 38.9238H88.3611L88.6335 37.1107H85.572L85.5787 37.2541H84.8276Z" fill="white"/>
<path d="M84.8276 37.2541L84.8055 37.1107H81.0986L81.7745 38.9238H88.3611L88.6335 37.1107H85.572L85.5787 37.2541H84.8276Z" fill="white"/>
<path d="M84.8276 37.2541L84.8055 37.1107H81.0986L81.7745 38.9238H88.3611L88.6335 37.1107H85.572L85.5787 37.2541H84.8276Z" fill="white"/>
<path d="M84.8276 37.2541L84.8055 37.1107H81.0986L81.7745 38.9238H88.3611L88.6335 37.1107H85.572L85.5787 37.2541H84.8276Z" fill="#E3E657"/>
<path d="M93.2974 38.4621C94.1918 38.8542 95.6982 39.0503 97.8167 39.0503C99.9449 39.0503 101.501 38.8542 102.484 38.4621C103.235 38.1627 103.758 37.7123 104.055 37.1107H99.7452C99.6571 37.2023 99.5283 37.2796 99.3588 37.3426C99.0535 37.4523 98.6167 37.5071 98.0486 37.5071C97.4997 37.5071 97.0794 37.4523 96.7877 37.3426C96.6318 37.2796 96.5209 37.2023 96.455 37.1107H92.122C92.2301 37.7123 92.6219 38.1627 93.2974 38.4621Z" fill="white"/>
<path d="M93.2974 38.4621C94.1918 38.8542 95.6982 39.0503 97.8167 39.0503C99.9449 39.0503 101.501 38.8542 102.484 38.4621C103.235 38.1627 103.758 37.7123 104.055 37.1107H99.7452C99.6571 37.2023 99.5283 37.2796 99.3588 37.3426C99.0535 37.4523 98.6167 37.5071 98.0486 37.5071C97.4997 37.5071 97.0794 37.4523 96.7877 37.3426C96.6318 37.2796 96.5209 37.2023 96.455 37.1107H92.122C92.2301 37.7123 92.6219 38.1627 93.2974 38.4621Z" fill="white"/>
<path d="M93.2974 38.4621C94.1918 38.8542 95.6982 39.0503 97.8167 39.0503C99.9449 39.0503 101.501 38.8542 102.484 38.4621C103.235 38.1627 103.758 37.7123 104.055 37.1107H99.7452C99.6571 37.2023 99.5283 37.2796 99.3588 37.3426C99.0535 37.4523 98.6167 37.5071 98.0486 37.5071C97.4997 37.5071 97.0794 37.4523 96.7877 37.3426C96.6318 37.2796 96.5209 37.2023 96.455 37.1107H92.122C92.2301 37.7123 92.6219 38.1627 93.2974 38.4621Z" fill="white"/>
<path d="M93.2974 38.4621C94.1918 38.8542 95.6982 39.0503 97.8167 39.0503C99.9449 39.0503 101.501 38.8542 102.484 38.4621C103.235 38.1627 103.758 37.7123 104.055 37.1107H99.7452C99.6571 37.2023 99.5283 37.2796 99.3588 37.3426C99.0535 37.4523 98.6167 37.5071 98.0486 37.5071C97.4997 37.5071 97.0794 37.4523 96.7877 37.3426C96.6318 37.2796 96.5209 37.2023 96.455 37.1107H92.122C92.2301 37.7123 92.6219 38.1627 93.2974 38.4621Z" fill="#E3E657"/>
<path d="M119.422 37.1107C119.494 37.2023 119.606 37.2796 119.756 37.3426C120.038 37.4523 120.468 37.5071 121.046 37.5071C121.614 37.5071 122.036 37.4523 122.313 37.3426C122.472 37.2796 122.6 37.2023 122.698 37.1107H127.041C126.735 37.7123 126.21 38.1627 125.467 38.4621C124.503 38.8542 122.952 39.0503 120.814 39.0503C118.695 39.0503 117.213 38.8542 116.367 38.4621C115.728 38.1627 115.348 37.7123 115.226 37.1107H119.422Z" fill="white"/>
<path d="M119.422 37.1107C119.494 37.2023 119.606 37.2796 119.756 37.3426C120.038 37.4523 120.468 37.5071 121.046 37.5071C121.614 37.5071 122.036 37.4523 122.313 37.3426C122.472 37.2796 122.6 37.2023 122.698 37.1107H127.041C126.735 37.7123 126.21 38.1627 125.467 38.4621C124.503 38.8542 122.952 39.0503 120.814 39.0503C118.695 39.0503 117.213 38.8542 116.367 38.4621C115.728 38.1627 115.348 37.7123 115.226 37.1107H119.422Z" fill="white"/>
<path d="M119.422 37.1107C119.494 37.2023 119.606 37.2796 119.756 37.3426C120.038 37.4523 120.468 37.5071 121.046 37.5071C121.614 37.5071 122.036 37.4523 122.313 37.3426C122.472 37.2796 122.6 37.2023 122.698 37.1107H127.041C126.735 37.7123 126.21 38.1627 125.467 38.4621C124.503 38.8542 122.952 39.0503 120.814 39.0503C118.695 39.0503 117.213 38.8542 116.367 38.4621C115.728 38.1627 115.348 37.7123 115.226 37.1107H119.422Z" fill="white"/>
<path d="M119.422 37.1107C119.494 37.2023 119.606 37.2796 119.756 37.3426C120.038 37.4523 120.468 37.5071 121.046 37.5071C121.614 37.5071 122.036 37.4523 122.313 37.3426C122.472 37.2796 122.6 37.2023 122.698 37.1107H127.041C126.735 37.7123 126.21 38.1627 125.467 38.4621C124.503 38.8542 122.952 39.0503 120.814 39.0503C118.695 39.0503 117.213 38.8542 116.367 38.4621C115.728 38.1627 115.348 37.7123 115.226 37.1107H119.422Z" fill="#E3E657"/>
<path d="M130.263 38.9238L130.536 37.1107H134.869L134.847 37.2541H140.51L140.259 38.9238H130.263Z" fill="white"/>
<path d="M130.263 38.9238L130.536 37.1107H134.869L134.847 37.2541H140.51L140.259 38.9238H130.263Z" fill="white"/>
<path d="M130.263 38.9238L130.536 37.1107H134.869L134.847 37.2541H140.51L140.259 38.9238H130.263Z" fill="white"/>
<path d="M130.263 38.9238L130.536 37.1107H134.869L134.847 37.2541H140.51L140.259 38.9238H130.263Z" fill="#E3E657"/>
<path d="M106.989 38.9238L107.261 37.1107H111.594L111.322 38.9238H106.989Z" fill="white"/>
<path d="M106.989 38.9238L107.261 37.1107H111.594L111.322 38.9238H106.989Z" fill="white"/>
<path d="M106.989 38.9238L107.261 37.1107H111.594L111.322 38.9238H106.989Z" fill="white"/>
<path d="M106.989 38.9238L107.261 37.1107H111.594L111.322 38.9238H106.989Z" fill="#E3E657"/>
<path fill-rule="evenodd" clip-rule="evenodd" d="M98.629 31.2963C96.4954 31.2963 95.022 30.8563 94.2087 29.9762C93.4051 29.0962 93.1496 27.6343 93.442 25.5903C93.5773 24.663 93.7237 23.6978 93.8814 22.6948C94.039 21.6917 94.2038 20.6745 94.3759 19.6431C94.5479 18.6117 94.7224 17.5944 94.8994 16.5914C95.0764 15.5884 95.252 14.6232 95.4261 13.6958C95.8139 11.6614 96.5556 10.2089 97.6512 9.33831C98.7581 8.45829 100.378 8.01828 102.512 8.01828C104.655 8.01828 106.119 8.45829 106.903 9.33831C107.689 10.2089 107.946 11.6614 107.674 13.6958C107.555 14.6421 107.422 15.6168 107.274 16.6198C107.126 17.6228 106.966 18.6401 106.794 19.6715C106.624 20.6934 106.445 21.7059 106.258 22.709C106.073 23.7025 105.884 24.663 105.69 25.5903C105.282 27.6343 104.538 29.0962 103.46 29.9762C102.383 30.8563 100.772 31.2963 98.629 31.2963ZM99.2067 27.833C99.7788 27.833 100.231 27.71 100.563 27.4639C100.896 27.2084 101.107 26.8489 101.194 26.3852C101.403 25.42 101.614 24.3602 101.826 23.2058C102.038 22.0513 102.246 20.8638 102.449 19.6431C102.653 18.4224 102.841 17.2349 103.014 16.0804C103.188 14.926 103.33 13.8662 103.443 12.901C103.509 12.4468 103.412 12.0967 103.153 11.8506C102.893 11.6046 102.487 11.4816 101.934 11.4816C101.381 11.4816 100.929 11.6046 100.578 11.8506C100.236 12.0967 100.018 12.4468 99.9227 12.901C99.7229 13.8662 99.5122 14.926 99.2905 16.0804C99.0785 17.2349 98.8708 18.4224 98.6671 19.6431C98.4635 20.8638 98.2751 22.0513 98.102 23.2058C97.9385 24.3602 97.7957 25.42 97.6734 26.3852C97.6155 26.8489 97.7155 27.2084 97.9736 27.4639C98.2428 27.71 98.6539 27.833 99.2067 27.833Z" fill="white"/>
<path fill-rule="evenodd" clip-rule="evenodd" d="M98.629 31.2963C96.4954 31.2963 95.022 30.8563 94.2087 29.9762C93.4051 29.0962 93.1496 27.6343 93.442 25.5903C93.5773 24.663 93.7237 23.6978 93.8814 22.6948C94.039 21.6917 94.2038 20.6745 94.3759 19.6431C94.5479 18.6117 94.7224 17.5944 94.8994 16.5914C95.0764 15.5884 95.252 14.6232 95.4261 13.6958C95.8139 11.6614 96.5556 10.2089 97.6512 9.33831C98.7581 8.45829 100.378 8.01828 102.512 8.01828C104.655 8.01828 106.119 8.45829 106.903 9.33831C107.689 10.2089 107.946 11.6614 107.674 13.6958C107.555 14.6421 107.422 15.6168 107.274 16.6198C107.126 17.6228 106.966 18.6401 106.794 19.6715C106.624 20.6934 106.445 21.7059 106.258 22.709C106.073 23.7025 105.884 24.663 105.69 25.5903C105.282 27.6343 104.538 29.0962 103.46 29.9762C102.383 30.8563 100.772 31.2963 98.629 31.2963ZM99.2067 27.833C99.7788 27.833 100.231 27.71 100.563 27.4639C100.896 27.2084 101.107 26.8489 101.194 26.3852C101.403 25.42 101.614 24.3602 101.826 23.2058C102.038 22.0513 102.246 20.8638 102.449 19.6431C102.653 18.4224 102.841 17.2349 103.014 16.0804C103.188 14.926 103.33 13.8662 103.443 12.901C103.509 12.4468 103.412 12.0967 103.153 11.8506C102.893 11.6046 102.487 11.4816 101.934 11.4816C101.381 11.4816 100.929 11.6046 100.578 11.8506C100.236 12.0967 100.018 12.4468 99.9227 12.901C99.7229 13.8662 99.5122 14.926 99.2905 16.0804C99.0785 17.2349 98.8708 18.4224 98.6671 19.6431C98.4635 20.8638 98.2751 22.0513 98.102 23.2058C97.9385 24.3602 97.7957 25.42 97.6734 26.3852C97.6155 26.8489 97.7155 27.2084 97.9736 27.4639C98.2428 27.71 98.6539 27.833 99.2067 27.833Z" fill="white"/>
<path fill-rule="evenodd" clip-rule="evenodd" d="M98.629 31.2963C96.4954 31.2963 95.022 30.8563 94.2087 29.9762C93.4051 29.0962 93.1496 27.6343 93.442 25.5903C93.5773 24.663 93.7237 23.6978 93.8814 22.6948C94.039 21.6917 94.2038 20.6745 94.3759 19.6431C94.5479 18.6117 94.7224 17.5944 94.8994 16.5914C95.0764 15.5884 95.252 14.6232 95.4261 13.6958C95.8139 11.6614 96.5556 10.2089 97.6512 9.33831C98.7581 8.45829 100.378 8.01828 102.512 8.01828C104.655 8.01828 106.119 8.45829 106.903 9.33831C107.689 10.2089 107.946 11.6614 107.674 13.6958C107.555 14.6421 107.422 15.6168 107.274 16.6198C107.126 17.6228 106.966 18.6401 106.794 19.6715C106.624 20.6934 106.445 21.7059 106.258 22.709C106.073 23.7025 105.884 24.663 105.69 25.5903C105.282 27.6343 104.538 29.0962 103.46 29.9762C102.383 30.8563 100.772 31.2963 98.629 31.2963ZM99.2067 27.833C99.7788 27.833 100.231 27.71 100.563 27.4639C100.896 27.2084 101.107 26.8489 101.194 26.3852C101.403 25.42 101.614 24.3602 101.826 23.2058C102.038 22.0513 102.246 20.8638 102.449 19.6431C102.653 18.4224 102.841 17.2349 103.014 16.0804C103.188 14.926 103.33 13.8662 103.443 12.901C103.509 12.4468 103.412 12.0967 103.153 11.8506C102.893 11.6046 102.487 11.4816 101.934 11.4816C101.381 11.4816 100.929 11.6046 100.578 11.8506C100.236 12.0967 100.018 12.4468 99.9227 12.901C99.7229 13.8662 99.5122 14.926 99.2905 16.0804C99.0785 17.2349 98.8708 18.4224 98.6671 19.6431C98.4635 20.8638 98.2751 22.0513 98.102 23.2058C97.9385 24.3602 97.7957 25.42 97.6734 26.3852C97.6155 26.8489 97.7155 27.2084 97.9736 27.4639C98.2428 27.71 98.6539 27.833 99.2067 27.833Z" fill="white"/>
<path fill-rule="evenodd" clip-rule="evenodd" d="M98.629 31.2963C96.4954 31.2963 95.022 30.8563 94.2087 29.9762C93.4051 29.0962 93.1496 27.6343 93.442 25.5903C93.5773 24.663 93.7237 23.6978 93.8814 22.6948C94.039 21.6917 94.2038 20.6745 94.3759 19.6431C94.5479 18.6117 94.7224 17.5944 94.8994 16.5914C95.0764 15.5884 95.252 14.6232 95.4261 13.6958C95.8139 11.6614 96.5556 10.2089 97.6512 9.33831C98.7581 8.45829 100.378 8.01828 102.512 8.01828C104.655 8.01828 106.119 8.45829 106.903 9.33831C107.689 10.2089 107.946 11.6614 107.674 13.6958C107.555 14.6421 107.422 15.6168 107.274 16.6198C107.126 17.6228 106.966 18.6401 106.794 19.6715C106.624 20.6934 106.445 21.7059 106.258 22.709C106.073 23.7025 105.884 24.663 105.69 25.5903C105.282 27.6343 104.538 29.0962 103.46 29.9762C102.383 30.8563 100.772 31.2963 98.629 31.2963ZM99.2067 27.833C99.7788 27.833 100.231 27.71 100.563 27.4639C100.896 27.2084 101.107 26.8489 101.194 26.3852C101.403 25.42 101.614 24.3602 101.826 23.2058C102.038 22.0513 102.246 20.8638 102.449 19.6431C102.653 18.4224 102.841 17.2349 103.014 16.0804C103.188 14.926 103.33 13.8662 103.443 12.901C103.509 12.4468 103.412 12.0967 103.153 11.8506C102.893 11.6046 102.487 11.4816 101.934 11.4816C101.381 11.4816 100.929 11.6046 100.578 11.8506C100.236 12.0967 100.018 12.4468 99.9227 12.901C99.7229 13.8662 99.5122 14.926 99.2905 16.0804C99.0785 17.2349 98.8708 18.4224 98.6671 19.6431C98.4635 20.8638 98.2751 22.0513 98.102 23.2058C97.9385 24.3602 97.7957 25.42 97.6734 26.3852C97.6155 26.8489 97.7155 27.2084 97.9736 27.4639C98.2428 27.71 98.6539 27.833 99.2067 27.833Z" fill="#E3E657"/>
<path d="M75.6643 31.0124L79.4524 8.30216H85.7657L86.3038 15.541L85.9484 27.2652H86.7048L87.4291 18.0392L88.7042 8.30216H92.9227L89.1346 31.0124H82.5012L81.9962 23.5748L82.7307 12.021H81.916L80.9583 22.2973L79.8828 31.0124H75.6643Z" fill="white"/>
<path d="M75.6643 31.0124L79.4524 8.30216H85.7657L86.3038 15.541L85.9484 27.2652H86.7048L87.4291 18.0392L88.7042 8.30216H92.9227L89.1346 31.0124H82.5012L81.9962 23.5748L82.7307 12.021H81.916L80.9583 22.2973L79.8828 31.0124H75.6643Z" fill="white"/>
<path d="M75.6643 31.0124L79.4524 8.30216H85.7657L86.3038 15.541L85.9484 27.2652H86.7048L87.4291 18.0392L88.7042 8.30216H92.9227L89.1346 31.0124H82.5012L81.9962 23.5748L82.7307 12.021H81.916L80.9583 22.2973L79.8828 31.0124H75.6643Z" fill="white"/>
<path d="M75.6643 31.0124L79.4524 8.30216H85.7657L86.3038 15.541L85.9484 27.2652H86.7048L87.4291 18.0392L88.7042 8.30216H92.9227L89.1346 31.0124H82.5012L81.9962 23.5748L82.7307 12.021H81.916L80.9583 22.2973L79.8828 31.0124H75.6643Z" fill="#E3E657"/>
<path d="M117.442 29.9762C118.207 30.8563 119.656 31.2963 121.789 31.2963C123.942 31.2963 125.548 30.8563 126.606 29.9762C127.674 29.0962 128.422 27.6343 128.851 25.5903C128.897 25.3727 128.944 25.1456 128.993 24.909C129.043 24.6725 129.087 24.4359 129.126 24.1993C129.166 23.9628 129.199 23.7357 129.225 23.518C129.349 22.5434 129.331 21.6917 129.172 20.9631C129.023 20.225 128.675 19.61 128.126 19.1179C127.589 18.6164 126.799 18.2379 125.756 17.9824L123.771 17.4998C123.295 17.3863 122.972 17.1733 122.801 16.8611C122.63 16.5488 122.551 16.2034 122.566 15.8249C122.588 15.3423 122.641 14.855 122.723 14.363C122.805 13.8709 122.915 13.3836 123.054 12.901C123.188 12.4468 123.416 12.0967 123.738 11.8506C124.06 11.6046 124.513 11.4816 125.094 11.4816C125.637 11.4816 126.048 11.6046 126.327 11.8506C126.616 12.0967 126.727 12.4468 126.661 12.901C126.582 13.5539 126.482 14.2068 126.364 14.8597C126.245 15.5127 126.117 16.1656 125.979 16.8185H130.168C130.281 16.317 130.391 15.7729 130.499 15.1862C130.616 14.5995 130.699 14.1027 130.747 13.6958C130.999 11.6614 130.733 10.2089 129.947 9.33831C129.163 8.45829 127.738 8.01828 125.672 8.01828C124.208 8.01828 123.002 8.21226 122.055 8.60023C121.109 8.97874 120.358 9.58434 119.802 10.417C119.256 11.2498 118.841 12.3427 118.557 13.6958C118.489 14.046 118.427 14.3866 118.372 14.7178C118.319 15.0395 118.262 15.4086 118.202 15.8249C118.073 16.7712 118.081 17.5992 118.224 18.3089C118.377 19.0186 118.709 19.6147 119.22 20.0973C119.733 20.5704 120.472 20.9347 121.438 21.1902L123.725 21.7864C124.171 21.8999 124.474 22.1176 124.634 22.4393C124.794 22.761 124.86 23.1206 124.832 23.518C124.817 23.8398 124.788 24.1615 124.744 24.4832C124.711 24.7955 124.658 25.1125 124.585 25.4342C124.524 25.7465 124.446 26.0635 124.354 26.3852C124.218 26.8489 123.994 27.2084 123.679 27.4639C123.377 27.71 122.939 27.833 122.367 27.833C121.785 27.833 121.364 27.71 121.105 27.4639C120.856 27.2084 120.747 26.8489 120.776 26.3852C120.81 25.8269 120.889 25.2118 121.011 24.54C121.132 23.8681 121.27 23.1868 121.424 22.4961H117.322C117.223 22.7989 117.133 23.1348 117.052 23.5038C116.973 23.8634 116.902 24.2277 116.841 24.5968C116.781 24.9563 116.73 25.2875 116.69 25.5903C116.436 27.6343 116.687 29.0962 117.442 29.9762Z" fill="white"/>
<path d="M117.442 29.9762C118.207 30.8563 119.656 31.2963 121.789 31.2963C123.942 31.2963 125.548 30.8563 126.606 29.9762C127.674 29.0962 128.422 27.6343 128.851 25.5903C128.897 25.3727 128.944 25.1456 128.993 24.909C129.043 24.6725 129.087 24.4359 129.126 24.1993C129.166 23.9628 129.199 23.7357 129.225 23.518C129.349 22.5434 129.331 21.6917 129.172 20.9631C129.023 20.225 128.675 19.61 128.126 19.1179C127.589 18.6164 126.799 18.2379 125.756 17.9824L123.771 17.4998C123.295 17.3863 122.972 17.1733 122.801 16.8611C122.63 16.5488 122.551 16.2034 122.566 15.8249C122.588 15.3423 122.641 14.855 122.723 14.363C122.805 13.8709 122.915 13.3836 123.054 12.901C123.188 12.4468 123.416 12.0967 123.738 11.8506C124.06 11.6046 124.513 11.4816 125.094 11.4816C125.637 11.4816 126.048 11.6046 126.327 11.8506C126.616 12.0967 126.727 12.4468 126.661 12.901C126.582 13.5539 126.482 14.2068 126.364 14.8597C126.245 15.5127 126.117 16.1656 125.979 16.8185H130.168C130.281 16.317 130.391 15.7729 130.499 15.1862C130.616 14.5995 130.699 14.1027 130.747 13.6958C130.999 11.6614 130.733 10.2089 129.947 9.33831C129.163 8.45829 127.738 8.01828 125.672 8.01828C124.208 8.01828 123.002 8.21226 122.055 8.60023C121.109 8.97874 120.358 9.58434 119.802 10.417C119.256 11.2498 118.841 12.3427 118.557 13.6958C118.489 14.046 118.427 14.3866 118.372 14.7178C118.319 15.0395 118.262 15.4086 118.202 15.8249C118.073 16.7712 118.081 17.5992 118.224 18.3089C118.377 19.0186 118.709 19.6147 119.22 20.0973C119.733 20.5704 120.472 20.9347 121.438 21.1902L123.725 21.7864C124.171 21.8999 124.474 22.1176 124.634 22.4393C124.794 22.761 124.86 23.1206 124.832 23.518C124.817 23.8398 124.788 24.1615 124.744 24.4832C124.711 24.7955 124.658 25.1125 124.585 25.4342C124.524 25.7465 124.446 26.0635 124.354 26.3852C124.218 26.8489 123.994 27.2084 123.679 27.4639C123.377 27.71 122.939 27.833 122.367 27.833C121.785 27.833 121.364 27.71 121.105 27.4639C120.856 27.2084 120.747 26.8489 120.776 26.3852C120.81 25.8269 120.889 25.2118 121.011 24.54C121.132 23.8681 121.27 23.1868 121.424 22.4961H117.322C117.223 22.7989 117.133 23.1348 117.052 23.5038C116.973 23.8634 116.902 24.2277 116.841 24.5968C116.781 24.9563 116.73 25.2875 116.69 25.5903C116.436 27.6343 116.687 29.0962 117.442 29.9762Z" fill="white"/>
<path d="M117.442 29.9762C118.207 30.8563 119.656 31.2963 121.789 31.2963C123.942 31.2963 125.548 30.8563 126.606 29.9762C127.674 29.0962 128.422 27.6343 128.851 25.5903C128.897 25.3727 128.944 25.1456 128.993 24.909C129.043 24.6725 129.087 24.4359 129.126 24.1993C129.166 23.9628 129.199 23.7357 129.225 23.518C129.349 22.5434 129.331 21.6917 129.172 20.9631C129.023 20.225 128.675 19.61 128.126 19.1179C127.589 18.6164 126.799 18.2379 125.756 17.9824L123.771 17.4998C123.295 17.3863 122.972 17.1733 122.801 16.8611C122.63 16.5488 122.551 16.2034 122.566 15.8249C122.588 15.3423 122.641 14.855 122.723 14.363C122.805 13.8709 122.915 13.3836 123.054 12.901C123.188 12.4468 123.416 12.0967 123.738 11.8506C124.06 11.6046 124.513 11.4816 125.094 11.4816C125.637 11.4816 126.048 11.6046 126.327 11.8506C126.616 12.0967 126.727 12.4468 126.661 12.901C126.582 13.5539 126.482 14.2068 126.364 14.8597C126.245 15.5127 126.117 16.1656 125.979 16.8185H130.168C130.281 16.317 130.391 15.7729 130.499 15.1862C130.616 14.5995 130.699 14.1027 130.747 13.6958C130.999 11.6614 130.733 10.2089 129.947 9.33831C129.163 8.45829 127.738 8.01828 125.672 8.01828C124.208 8.01828 123.002 8.21226 122.055 8.60023C121.109 8.97874 120.358 9.58434 119.802 10.417C119.256 11.2498 118.841 12.3427 118.557 13.6958C118.489 14.046 118.427 14.3866 118.372 14.7178C118.319 15.0395 118.262 15.4086 118.202 15.8249C118.073 16.7712 118.081 17.5992 118.224 18.3089C118.377 19.0186 118.709 19.6147 119.22 20.0973C119.733 20.5704 120.472 20.9347 121.438 21.1902L123.725 21.7864C124.171 21.8999 124.474 22.1176 124.634 22.4393C124.794 22.761 124.86 23.1206 124.832 23.518C124.817 23.8398 124.788 24.1615 124.744 24.4832C124.711 24.7955 124.658 25.1125 124.585 25.4342C124.524 25.7465 124.446 26.0635 124.354 26.3852C124.218 26.8489 123.994 27.2084 123.679 27.4639C123.377 27.71 122.939 27.833 122.367 27.833C121.785 27.833 121.364 27.71 121.105 27.4639C120.856 27.2084 120.747 26.8489 120.776 26.3852C120.81 25.8269 120.889 25.2118 121.011 24.54C121.132 23.8681 121.27 23.1868 121.424 22.4961H117.322C117.223 22.7989 117.133 23.1348 117.052 23.5038C116.973 23.8634 116.902 24.2277 116.841 24.5968C116.781 24.9563 116.73 25.2875 116.69 25.5903C116.436 27.6343 116.687 29.0962 117.442 29.9762Z" fill="white"/>
<path d="M117.442 29.9762C118.207 30.8563 119.656 31.2963 121.789 31.2963C123.942 31.2963 125.548 30.8563 126.606 29.9762C127.674 29.0962 128.422 27.6343 128.851 25.5903C128.897 25.3727 128.944 25.1456 128.993 24.909C129.043 24.6725 129.087 24.4359 129.126 24.1993C129.166 23.9628 129.199 23.7357 129.225 23.518C129.349 22.5434 129.331 21.6917 129.172 20.9631C129.023 20.225 128.675 19.61 128.126 19.1179C127.589 18.6164 126.799 18.2379 125.756 17.9824L123.771 17.4998C123.295 17.3863 122.972 17.1733 122.801 16.8611C122.63 16.5488 122.551 16.2034 122.566 15.8249C122.588 15.3423 122.641 14.855 122.723 14.363C122.805 13.8709 122.915 13.3836 123.054 12.901C123.188 12.4468 123.416 12.0967 123.738 11.8506C124.06 11.6046 124.513 11.4816 125.094 11.4816C125.637 11.4816 126.048 11.6046 126.327 11.8506C126.616 12.0967 126.727 12.4468 126.661 12.901C126.582 13.5539 126.482 14.2068 126.364 14.8597C126.245 15.5127 126.117 16.1656 125.979 16.8185H130.168C130.281 16.317 130.391 15.7729 130.499 15.1862C130.616 14.5995 130.699 14.1027 130.747 13.6958C130.999 11.6614 130.733 10.2089 129.947 9.33831C129.163 8.45829 127.738 8.01828 125.672 8.01828C124.208 8.01828 123.002 8.21226 122.055 8.60023C121.109 8.97874 120.358 9.58434 119.802 10.417C119.256 11.2498 118.841 12.3427 118.557 13.6958C118.489 14.046 118.427 14.3866 118.372 14.7178C118.319 15.0395 118.262 15.4086 118.202 15.8249C118.073 16.7712 118.081 17.5992 118.224 18.3089C118.377 19.0186 118.709 19.6147 119.22 20.0973C119.733 20.5704 120.472 20.9347 121.438 21.1902L123.725 21.7864C124.171 21.8999 124.474 22.1176 124.634 22.4393C124.794 22.761 124.86 23.1206 124.832 23.518C124.817 23.8398 124.788 24.1615 124.744 24.4832C124.711 24.7955 124.658 25.1125 124.585 25.4342C124.524 25.7465 124.446 26.0635 124.354 26.3852C124.218 26.8489 123.994 27.2084 123.679 27.4639C123.377 27.71 122.939 27.833 122.367 27.833C121.785 27.833 121.364 27.71 121.105 27.4639C120.856 27.2084 120.747 26.8489 120.776 26.3852C120.81 25.8269 120.889 25.2118 121.011 24.54C121.132 23.8681 121.27 23.1868 121.424 22.4961H117.322C117.223 22.7989 117.133 23.1348 117.052 23.5038C116.973 23.8634 116.902 24.2277 116.841 24.5968C116.781 24.9563 116.73 25.2875 116.69 25.5903C116.436 27.6343 116.687 29.0962 117.442 29.9762Z" fill="#E3E657"/>
<path fill-rule="evenodd" clip-rule="evenodd" d="M80.492 80.2661C80.492 83.2119 78.104 85.5999 75.1582 85.5999C72.2124 85.5999 69.8244 83.2119 69.8244 80.2661C69.8244 80.1027 69.832 79.9409 69.8462 79.7812H59.1568C58.0857 79.7812 57.2172 80.6496 57.2172 81.7208V134.296C57.2172 135.367 58.0857 136.236 59.1568 136.236H90.6454C91.717 136.236 92.585 135.367 92.585 134.296V81.7208C92.585 80.6496 91.717 79.7812 90.6454 79.7812H80.4702C80.4845 79.9409 80.492 80.1027 80.492 80.2661ZM67.4552 128.705C68.9853 130.182 71.5441 130.921 75.1318 130.921C78.6668 130.921 81.2169 130.182 82.7821 128.705C84.3649 127.228 85.2002 124.778 85.2882 121.354C85.3234 120.347 85.341 119.278 85.341 118.148C85.341 117.691 85.3382 117.246 85.3326 116.813C85.319 115.769 84.4607 114.942 83.4163 114.942H80.4714C79.381 114.942 78.5043 115.841 78.5078 116.931C78.5083 117.073 78.5085 117.218 78.5085 117.366C78.5261 118.287 78.5261 119.208 78.5085 120.129C78.5085 121.05 78.4997 121.867 78.4821 122.58C78.4645 123.518 78.1743 124.23 77.6116 124.717C77.0488 125.186 76.2222 125.421 75.1318 125.421C74.0942 125.421 73.3028 125.186 72.7576 124.717C72.2124 124.23 71.9223 123.518 71.8871 122.58C71.8167 120.564 71.764 118.461 71.7288 116.272C71.7112 114.065 71.7024 111.832 71.7024 109.572C71.7024 107.313 71.7112 105.08 71.7288 102.873C71.764 100.667 71.8167 98.5552 71.8871 96.5394C71.9223 95.6184 72.2124 94.9233 72.7576 94.4541C73.3028 93.9849 74.0942 93.7503 75.1318 93.7503C76.1343 93.7503 76.8993 93.9849 77.4269 94.4541C77.9721 94.9233 78.2535 95.6184 78.2711 96.5394C78.2887 97.2518 78.2975 98.0599 78.2975 98.9635C78.2975 99.8672 78.2887 100.771 78.2711 101.674L78.2628 102.085C78.2405 103.175 79.1164 104.073 80.2063 104.073H83.1417C84.1904 104.073 85.0492 103.239 85.0742 102.191L85.0771 102.065C85.0947 101.301 85.1035 100.545 85.1035 99.7977C85.1035 99.0504 85.0947 98.3727 85.0771 97.7645C84.9892 94.3585 84.1714 91.9256 82.6238 90.4659C81.0762 88.9888 78.5788 88.2503 75.1318 88.2503C71.6321 88.2503 69.0908 89.0931 67.508 90.7787C65.9428 92.4643 65.1338 94.7842 65.081 97.7384C65.0458 99.4588 65.0195 101.336 65.0019 103.369C64.9843 105.385 64.9755 107.452 64.9755 109.572C64.9755 111.693 64.9843 113.76 65.0019 115.776C65.0195 117.792 65.0458 119.651 65.081 121.354C65.1514 124.778 65.9428 127.228 67.4552 128.705Z" fill="white"/>
<path fill-rule="evenodd" clip-rule="evenodd" d="M80.492 80.2661C80.492 83.2119 78.104 85.5999 75.1582 85.5999C72.2124 85.5999 69.8244 83.2119 69.8244 80.2661C69.8244 80.1027 69.832 79.9409 69.8462 79.7812H59.1568C58.0857 79.7812 57.2172 80.6496 57.2172 81.7208V134.296C57.2172 135.367 58.0857 136.236 59.1568 136.236H90.6454C91.717 136.236 92.585 135.367 92.585 134.296V81.7208C92.585 80.6496 91.717 79.7812 90.6454 79.7812H80.4702C80.4845 79.9409 80.492 80.1027 80.492 80.2661ZM67.4552 128.705C68.9853 130.182 71.5441 130.921 75.1318 130.921C78.6668 130.921 81.2169 130.182 82.7821 128.705C84.3649 127.228 85.2002 124.778 85.2882 121.354C85.3234 120.347 85.341 119.278 85.341 118.148C85.341 117.691 85.3382 117.246 85.3326 116.813C85.319 115.769 84.4607 114.942 83.4163 114.942H80.4714C79.381 114.942 78.5043 115.841 78.5078 116.931C78.5083 117.073 78.5085 117.218 78.5085 117.366C78.5261 118.287 78.5261 119.208 78.5085 120.129C78.5085 121.05 78.4997 121.867 78.4821 122.58C78.4645 123.518 78.1743 124.23 77.6116 124.717C77.0488 125.186 76.2222 125.421 75.1318 125.421C74.0942 125.421 73.3028 125.186 72.7576 124.717C72.2124 124.23 71.9223 123.518 71.8871 122.58C71.8167 120.564 71.764 118.461 71.7288 116.272C71.7112 114.065 71.7024 111.832 71.7024 109.572C71.7024 107.313 71.7112 105.08 71.7288 102.873C71.764 100.667 71.8167 98.5552 71.8871 96.5394C71.9223 95.6184 72.2124 94.9233 72.7576 94.4541C73.3028 93.9849 74.0942 93.7503 75.1318 93.7503C76.1343 93.7503 76.8993 93.9849 77.4269 94.4541C77.9721 94.9233 78.2535 95.6184 78.2711 96.5394C78.2887 97.2518 78.2975 98.0599 78.2975 98.9635C78.2975 99.8672 78.2887 100.771 78.2711 101.674L78.2628 102.085C78.2405 103.175 79.1164 104.073 80.2063 104.073H83.1417C84.1904 104.073 85.0492 103.239 85.0742 102.191L85.0771 102.065C85.0947 101.301 85.1035 100.545 85.1035 99.7977C85.1035 99.0504 85.0947 98.3727 85.0771 97.7645C84.9892 94.3585 84.1714 91.9256 82.6238 90.4659C81.0762 88.9888 78.5788 88.2503 75.1318 88.2503C71.6321 88.2503 69.0908 89.0931 67.508 90.7787C65.9428 92.4643 65.1338 94.7842 65.081 97.7384C65.0458 99.4588 65.0195 101.336 65.0019 103.369C64.9843 105.385 64.9755 107.452 64.9755 109.572C64.9755 111.693 64.9843 113.76 65.0019 115.776C65.0195 117.792 65.0458 119.651 65.081 121.354C65.1514 124.778 65.9428 127.228 67.4552 128.705Z" fill="white"/>
<path fill-rule="evenodd" clip-rule="evenodd" d="M80.492 80.2661C80.492 83.2119 78.104 85.5999 75.1582 85.5999C72.2124 85.5999 69.8244 83.2119 69.8244 80.2661C69.8244 80.1027 69.832 79.9409 69.8462 79.7812H59.1568C58.0857 79.7812 57.2172 80.6496 57.2172 81.7208V134.296C57.2172 135.367 58.0857 136.236 59.1568 136.236H90.6454C91.717 136.236 92.585 135.367 92.585 134.296V81.7208C92.585 80.6496 91.717 79.7812 90.6454 79.7812H80.4702C80.4845 79.9409 80.492 80.1027 80.492 80.2661ZM67.4552 128.705C68.9853 130.182 71.5441 130.921 75.1318 130.921C78.6668 130.921 81.2169 130.182 82.7821 128.705C84.3649 127.228 85.2002 124.778 85.2882 121.354C85.3234 120.347 85.341 119.278 85.341 118.148C85.341 117.691 85.3382 117.246 85.3326 116.813C85.319 115.769 84.4607 114.942 83.4163 114.942H80.4714C79.381 114.942 78.5043 115.841 78.5078 116.931C78.5083 117.073 78.5085 117.218 78.5085 117.366C78.5261 118.287 78.5261 119.208 78.5085 120.129C78.5085 121.05 78.4997 121.867 78.4821 122.58C78.4645 123.518 78.1743 124.23 77.6116 124.717C77.0488 125.186 76.2222 125.421 75.1318 125.421C74.0942 125.421 73.3028 125.186 72.7576 124.717C72.2124 124.23 71.9223 123.518 71.8871 122.58C71.8167 120.564 71.764 118.461 71.7288 116.272C71.7112 114.065 71.7024 111.832 71.7024 109.572C71.7024 107.313 71.7112 105.08 71.7288 102.873C71.764 100.667 71.8167 98.5552 71.8871 96.5394C71.9223 95.6184 72.2124 94.9233 72.7576 94.4541C73.3028 93.9849 74.0942 93.7503 75.1318 93.7503C76.1343 93.7503 76.8993 93.9849 77.4269 94.4541C77.9721 94.9233 78.2535 95.6184 78.2711 96.5394C78.2887 97.2518 78.2975 98.0599 78.2975 98.9635C78.2975 99.8672 78.2887 100.771 78.2711 101.674L78.2628 102.085C78.2405 103.175 79.1164 104.073 80.2063 104.073H83.1417C84.1904 104.073 85.0492 103.239 85.0742 102.191L85.0771 102.065C85.0947 101.301 85.1035 100.545 85.1035 99.7977C85.1035 99.0504 85.0947 98.3727 85.0771 97.7645C84.9892 94.3585 84.1714 91.9256 82.6238 90.4659C81.0762 88.9888 78.5788 88.2503 75.1318 88.2503C71.6321 88.2503 69.0908 89.0931 67.508 90.7787C65.9428 92.4643 65.1338 94.7842 65.081 97.7384C65.0458 99.4588 65.0195 101.336 65.0019 103.369C64.9843 105.385 64.9755 107.452 64.9755 109.572C64.9755 111.693 64.9843 113.76 65.0019 115.776C65.0195 117.792 65.0458 119.651 65.081 121.354C65.1514 124.778 65.9428 127.228 67.4552 128.705Z" fill="white"/>
<path fill-rule="evenodd" clip-rule="evenodd" d="M80.492 80.2661C80.492 83.2119 78.104 85.5999 75.1582 85.5999C72.2124 85.5999 69.8244 83.2119 69.8244 80.2661C69.8244 80.1027 69.832 79.9409 69.8462 79.7812H59.1568C58.0857 79.7812 57.2172 80.6496 57.2172 81.7208V134.296C57.2172 135.367 58.0857 136.236 59.1568 136.236H90.6454C91.717 136.236 92.585 135.367 92.585 134.296V81.7208C92.585 80.6496 91.717 79.7812 90.6454 79.7812H80.4702C80.4845 79.9409 80.492 80.1027 80.492 80.2661ZM67.4552 128.705C68.9853 130.182 71.5441 130.921 75.1318 130.921C78.6668 130.921 81.2169 130.182 82.7821 128.705C84.3649 127.228 85.2002 124.778 85.2882 121.354C85.3234 120.347 85.341 119.278 85.341 118.148C85.341 117.691 85.3382 117.246 85.3326 116.813C85.319 115.769 84.4607 114.942 83.4163 114.942H80.4714C79.381 114.942 78.5043 115.841 78.5078 116.931C78.5083 117.073 78.5085 117.218 78.5085 117.366C78.5261 118.287 78.5261 119.208 78.5085 120.129C78.5085 121.05 78.4997 121.867 78.4821 122.58C78.4645 123.518 78.1743 124.23 77.6116 124.717C77.0488 125.186 76.2222 125.421 75.1318 125.421C74.0942 125.421 73.3028 125.186 72.7576 124.717C72.2124 124.23 71.9223 123.518 71.8871 122.58C71.8167 120.564 71.764 118.461 71.7288 116.272C71.7112 114.065 71.7024 111.832 71.7024 109.572C71.7024 107.313 71.7112 105.08 71.7288 102.873C71.764 100.667 71.8167 98.5552 71.8871 96.5394C71.9223 95.6184 72.2124 94.9233 72.7576 94.4541C73.3028 93.9849 74.0942 93.7503 75.1318 93.7503C76.1343 93.7503 76.8993 93.9849 77.4269 94.4541C77.9721 94.9233 78.2535 95.6184 78.2711 96.5394C78.2887 97.2518 78.2975 98.0599 78.2975 98.9635C78.2975 99.8672 78.2887 100.771 78.2711 101.674L78.2628 102.085C78.2405 103.175 79.1164 104.073 80.2063 104.073H83.1417C84.1904 104.073 85.0492 103.239 85.0742 102.191L85.0771 102.065C85.0947 101.301 85.1035 100.545 85.1035 99.7977C85.1035 99.0504 85.0947 98.3727 85.0771 97.7645C84.9892 94.3585 84.1714 91.9256 82.6238 90.4659C81.0762 88.9888 78.5788 88.2503 75.1318 88.2503C71.6321 88.2503 69.0908 89.0931 67.508 90.7787C65.9428 92.4643 65.1338 94.7842 65.081 97.7384C65.0458 99.4588 65.0195 101.336 65.0019 103.369C64.9843 105.385 64.9755 107.452 64.9755 109.572C64.9755 111.693 64.9843 113.76 65.0019 115.776C65.0195 117.792 65.0458 119.651 65.081 121.354C65.1514 124.778 65.9428 127.228 67.4552 128.705Z" fill="white"/>
</svg>
